<?xml version="1.0" encoding="UTF-8" standalone="no"?>
<!DOCTYPE svg PUBLIC "-//W3C//DTD SVG 1.1//EN"
 "http://www.w3.org/Graphics/SVG/1.1/DTD/svg11.dtd">
<!-- Generated by graphviz version 9.0.0 (20230911.1827)
 -->
<!-- Title: EN683_VDMA Pages: 1 -->
<svg width="1235pt" height="586pt"
 viewBox="0.00 0.00 1235.00 585.50" xmlns="http://www.w3.org/2000/svg" xmlns:xlink="http://www.w3.org/1999/xlink">
<g id="graph0" class="graph" transform="scale(1 1) rotate(0) translate(4 581.5)">
<title>EN683_VDMA</title>
<polygon fill="white" stroke="none" points="-4,4 -4,-581.5 1231,-581.5 1231,4 -4,4"/>
<g id="clust1" class="cluster">
<title>cluster_user</title>
<path fill="#e8f5e9" stroke="#2e7d32" d="M587,-353.25C587,-353.25 1125,-353.25 1125,-353.25 1131,-353.25 1137,-359.25 1137,-365.25 1137,-365.25 1137,-557.5 1137,-557.5 1137,-563.5 1131,-569.5 1125,-569.5 1125,-569.5 587,-569.5 587,-569.5 581,-569.5 575,-563.5 575,-557.5 575,-557.5 575,-365.25 575,-365.25 575,-359.25 581,-353.25 587,-353.25"/>
<text text-anchor="start" x="812.12" y="-553.2" font-family="Helvetica,sans-Serif" font-weight="bold" font-size="14.00">User Space</text>
</g>
<g id="clust3" class="cluster">
<title>cluster_kernel</title>
<path fill="#f5f5f5" stroke="#666666" d="M20,-103.25C20,-103.25 1207,-103.25 1207,-103.25 1213,-103.25 1219,-109.25 1219,-115.25 1219,-115.25 1219,-290.75 1219,-290.75 1219,-296.75 1213,-302.75 1207,-302.75 1207,-302.75 20,-302.75 20,-302.75 14,-302.75 8,-296.75 8,-290.75 8,-290.75 8,-115.25 8,-115.25 8,-109.25 14,-103.25 20,-103.25"/>
<text text-anchor="start" x="562.12" y="-286.45" font-family="Helvetica,sans-Serif" font-weight="bold" font-size="14.00">Kernel Space</text>
</g>
<g id="clust4" class="cluster">
<title>cluster_device</title>
<path fill="#fff4e6" stroke="#cc6600" d="M510,-151.75C510,-151.75 1199,-151.75 1199,-151.75 1205,-151.75 1211,-157.75 1211,-163.75 1211,-163.75 1211,-217 1211,-217 1211,-223 1205,-229 1199,-229 1199,-229 510,-229 510,-229 504,-229 498,-223 498,-217 498,-217 498,-163.75 498,-163.75 498,-157.75 504,-151.75 510,-151.75"/>
<text text-anchor="middle" x="854.5" y="-211.7" font-family="Helvetica,sans-Serif" font-size="14.00">Drv Modules</text>
</g>
<g id="clust6" class="cluster">
<title>cluster_core</title>
<path fill="#e1f5ff" stroke="#0066cc" d="M28,-111.25C28,-111.25 410,-111.25 410,-111.25 416,-111.25 422,-117.25 422,-123.25 422,-123.25 422,-257.5 422,-257.5 422,-263.5 416,-269.5 410,-269.5 410,-269.5 28,-269.5 28,-269.5 22,-269.5 16,-263.5 16,-257.5 16,-257.5 16,-123.25 16,-123.25 16,-117.25 22,-111.25 28,-111.25"/>
<text text-anchor="start" x="135" y="-253.2" font-family="Helvetica,sans-Serif" font-weight="bold" font-size="14.00">enx_vdma.ko — CORE</text>
</g>
<g id="clust8" class="cluster">
<title>cluster_hw</title>
<path fill="#fafafa" stroke="#999999" d="M639,-8C639,-8 1072,-8 1072,-8 1078,-8 1084,-14 1084,-20 1084,-20 1084,-73.25 1084,-73.25 1084,-79.25 1078,-85.25 1072,-85.25 1072,-85.25 639,-85.25 639,-85.25 633,-85.25 627,-79.25 627,-73.25 627,-73.25 627,-20 627,-20 627,-14 633,-8 639,-8"/>
<text text-anchor="start" x="789.88" y="-68.95" font-family="Helvetica,sans-Serif" font-weight="bold" font-size="14.00">HW (EN683 SoC)</text>
</g>
<!-- app_font -->
<g id="node1" class="node">
<title>app_font</title>
<polygon fill="#ffffff" stroke="black" points="1129.2,-536.25 1042.8,-536.25 1042.8,-500.25 1129.2,-500.25 1129.2,-536.25"/>
<text text-anchor="middle" x="1086" y="-515.12" font-family="Helvetica,sans-Serif" font-size="10.00">font app</text>
</g>
<!-- lib -->
<g id="node6" class="node">
<title>lib</title>
<polygon fill="#c8e6c9" stroke="black" points="974.62,-449.25 741.38,-449.25 737.38,-445.25 737.38,-361.25 970.62,-361.25 974.62,-365.25 974.62,-449.25"/>
<polyline fill="none" stroke="black" points="970.62,-445.25 737.38,-445.25"/>
<polyline fill="none" stroke="black" points="970.62,-445.25 970.62,-361.25"/>
<polyline fill="none" stroke="black" points="970.62,-445.25 974.62,-449.25"/>
<text text-anchor="start" x="745.38" y="-426.75" font-family="Helvetica,sans-Serif" font-weight="bold" font-size="10.00">libenxmedialink.so / libenxmedialink.a</text>
<text text-anchor="start" x="796" y="-416.75" font-family="Helvetica,sans-Serif" font-style="italic" font-size="10.00">Functions&#45;type singleton</text>
<text text-anchor="start" x="823.38" y="-396.75" font-family="Helvetica,sans-Serif" font-size="10.00">&#45; open / close</text>
<text text-anchor="start" x="829" y="-386.75" font-family="Helvetica,sans-Serif" font-size="10.00">&#45; execution</text>
<text text-anchor="start" x="811" y="-376.75" font-family="Helvetica,sans-Serif" font-size="10.00">&#45; buffer alloc / free</text>
<text text-anchor="start" x="800.5" y="-366.75" font-family="Helvetica,sans-Serif" font-size="10.00">&#45; buffer export / import</text>
</g>
<!-- app_font&#45;&gt;lib -->
<g id="edge1" class="edge">
<title>app_font&#45;&gt;lib</title>
<path fill="none" stroke="black" d="M1049.81,-499.78C1024.59,-487.61 989.62,-470.74 956.32,-454.67"/>
<polygon fill="black" stroke="black" points="957.94,-451.56 947.42,-450.37 954.9,-457.87 957.94,-451.56"/>
</g>
<!-- app_scaler -->
<g id="node2" class="node">
<title>app_scaler</title>
<polygon fill="#ffffff" stroke="black" points="1014.2,-536.25 927.8,-536.25 927.8,-500.25 1014.2,-500.25 1014.2,-536.25"/>
<text text-anchor="middle" x="971" y="-515.12" font-family="Helvetica,sans-Serif" font-size="10.00">scaler app</text>
</g>
<!-- app_scaler&#45;&gt;lib -->
<g id="edge2" class="edge">
<title>app_scaler&#45;&gt;lib</title>
<path fill="none" stroke="black" d="M953.03,-499.91C941.09,-488.38 924.74,-472.6 908.86,-457.27"/>
<polygon fill="black" stroke="black" points="911.34,-454.8 901.72,-450.38 906.48,-459.84 911.34,-454.8"/>
</g>
<!-- app_jenc -->
<g id="node3" class="node">
<title>app_jenc</title>
<polygon fill="#ffffff" stroke="black" points="899.2,-536.25 812.8,-536.25 812.8,-500.25 899.2,-500.25 899.2,-536.25"/>
<text text-anchor="middle" x="856" y="-515.12" font-family="Helvetica,sans-Serif" font-size="10.00">jpegenc app</text>
</g>
<!-- app_jenc&#45;&gt;lib -->
<g id="edge3" class="edge">
<title>app_jenc&#45;&gt;lib</title>
<path fill="none" stroke="black" d="M856,-499.91C856,-489.23 856,-474.89 856,-460.65"/>
<polygon fill="black" stroke="black" points="859.5,-460.84 856,-450.84 852.5,-460.84 859.5,-460.84"/>
</g>
<!-- app_jdec -->
<g id="node4" class="node">
<title>app_jdec</title>
<polygon fill="#ffffff" stroke="black" points="784.2,-536.25 697.8,-536.25 697.8,-500.25 784.2,-500.25 784.2,-536.25"/>
<text text-anchor="middle" x="741" y="-515.12" font-family="Helvetica,sans-Serif" font-size="10.00">jpegdec app</text>
</g>
<!-- app_jdec&#45;&gt;lib -->
<g id="edge4" class="edge">
<title>app_jdec&#45;&gt;lib</title>
<path fill="none" stroke="black" d="M758.97,-499.91C770.91,-488.38 787.26,-472.6 803.14,-457.27"/>
<polygon fill="black" stroke="black" points="805.52,-459.84 810.28,-450.38 800.66,-454.8 805.52,-459.84"/>
</g>
<!-- app_npu -->
<g id="node5" class="node">
<title>app_npu</title>
<polygon fill="#ffffff" stroke="black" points="669.2,-536.25 582.8,-536.25 582.8,-500.25 669.2,-500.25 669.2,-536.25"/>
<text text-anchor="middle" x="626" y="-515.12" font-family="Helvetica,sans-Serif" font-size="10.00">npu app</text>
</g>
<!-- app_npu&#45;&gt;lib -->
<g id="edge5" class="edge">
<title>app_npu&#45;&gt;lib</title>
<path fill="none" stroke="black" d="M662.19,-499.78C687.41,-487.61 722.38,-470.74 755.68,-454.67"/>
<polygon fill="black" stroke="black" points="757.1,-457.87 764.58,-450.37 754.06,-451.56 757.1,-457.87"/>
</g>
<!-- dma_jenc -->
<g id="node9" class="node">
<title>dma_jenc</title>
<path fill="#ffffff" stroke="black" d="M902.25,-195.75C902.25,-195.75 809.75,-195.75 809.75,-195.75 803.75,-195.75 797.75,-189.75 797.75,-183.75 797.75,-183.75 797.75,-171.75 797.75,-171.75 797.75,-165.75 803.75,-159.75 809.75,-159.75 809.75,-159.75 902.25,-159.75 902.25,-159.75 908.25,-159.75 914.25,-165.75 914.25,-171.75 914.25,-171.75 914.25,-183.75 914.25,-183.75 914.25,-189.75 908.25,-195.75 902.25,-195.75"/>
<text text-anchor="middle" x="856" y="-181" font-family="Helvetica,sans-Serif" font-size="10.00">enx_vdma_jenc.ko</text>
<text text-anchor="middle" x="856" y="-168.25" font-family="Helvetica,sans-Serif" font-size="10.00">/dev/enx_vdma_jenc</text>
</g>
<!-- lib&#45;&gt;dma_jenc -->
<g id="edge7" class="edge">
<title>lib&#45;&gt;dma_jenc</title>
<path fill="none" stroke="#1976d2" stroke-width="2" d="M856,-360.77C856,-327.06 856,-279.86 856,-241.97"/>
<polygon fill="#1976d2" stroke="#1976d2" stroke-width="2" points="859.5,-242.02 856,-232.02 852.5,-242.02 859.5,-242.02"/>
<text text-anchor="middle" x="886.75" y="-326.75" font-family="Helvetica,sans-Serif" font-size="10.00">ioctl / mmap</text>
<text text-anchor="middle" x="886.75" y="-314" font-family="Helvetica,sans-Serif" font-size="10.00">via /dev</text>
</g>
<!-- dma_font -->
<g id="node7" class="node">
<title>dma_font</title>
<path fill="#ffffff" stroke="black" d="M609.88,-195.75C609.88,-195.75 518.12,-195.75 518.12,-195.75 512.12,-195.75 506.12,-189.75 506.12,-183.75 506.12,-183.75 506.12,-171.75 506.12,-171.75 506.12,-165.75 512.12,-159.75 518.12,-159.75 518.12,-159.75 609.88,-159.75 609.88,-159.75 615.88,-159.75 621.88,-165.75 621.88,-171.75 621.88,-171.75 621.88,-183.75 621.88,-183.75 621.88,-189.75 615.88,-195.75 609.88,-195.75"/>
<text text-anchor="middle" x="564" y="-181" font-family="Helvetica,sans-Serif" font-size="10.00">enx_vdma_font.ko</text>
<text text-anchor="middle" x="564" y="-168.25" font-family="Helvetica,sans-Serif" font-size="10.00">/dev/enx_vdma_font</text>
</g>
<!-- hw_font -->
<g id="node13" class="node">
<title>hw_font</title>
<path fill="#eeeeee" stroke="black" d="M714.5,-48.73C714.5,-50.53 696.8,-52 675,-52 653.2,-52 635.5,-50.53 635.5,-48.73 635.5,-48.73 635.5,-19.27 635.5,-19.27 635.5,-17.47 653.2,-16 675,-16 696.8,-16 714.5,-17.47 714.5,-19.27 714.5,-19.27 714.5,-48.73 714.5,-48.73"/>
<path fill="none" stroke="black" d="M714.5,-48.73C714.5,-46.92 696.8,-45.45 675,-45.45 653.2,-45.45 635.5,-46.92 635.5,-48.73"/>
<text text-anchor="middle" x="675" y="-30.88" font-family="Helvetica,sans-Serif" font-size="10.00">FONT engine</text>
</g>
<!-- dma_font&#45;&gt;hw_font -->
<g id="edge8" class="edge">
<title>dma_font&#45;&gt;hw_font</title>
<path fill="none" stroke="#666666" d="M577.61,-159.37C596.86,-134.79 632.16,-89.7 654.56,-61.1"/>
<polygon fill="#666666" stroke="#666666" points="657.28,-63.3 660.69,-53.27 651.77,-58.99 657.28,-63.3"/>
</g>
<!-- dma_dz0 -->
<g id="node8" class="node">
<title>dma_dz0</title>
<path fill="#ffffff" stroke="black" d="M757,-195.75C757,-195.75 663,-195.75 663,-195.75 657,-195.75 651,-189.75 651,-183.75 651,-183.75 651,-171.75 651,-171.75 651,-165.75 657,-159.75 663,-159.75 663,-159.75 757,-159.75 757,-159.75 763,-159.75 769,-165.75 769,-171.75 769,-171.75 769,-183.75 769,-183.75 769,-189.75 763,-195.75 757,-195.75"/>
<text text-anchor="middle" x="710" y="-181" font-family="Helvetica,sans-Serif" font-size="10.00">enx_vdma_dz.ko ch0</text>
<text text-anchor="middle" x="710" y="-168.25" font-family="Helvetica,sans-Serif" font-size="10.00">/dev/enx_vdma_dz0</text>
</g>
<!-- hw_dz0 -->
<g id="node14" class="node">
<title>hw_dz0</title>
<path fill="#eeeeee" stroke="black" d="M798,-48.73C798,-50.53 785.9,-52 771,-52 756.1,-52 744,-50.53 744,-48.73 744,-48.73 744,-19.27 744,-19.27 744,-17.47 756.1,-16 771,-16 785.9,-16 798,-17.47 798,-19.27 798,-19.27 798,-48.73 798,-48.73"/>
<path fill="none" stroke="black" d="M798,-48.73C798,-46.92 785.9,-45.45 771,-45.45 756.1,-45.45 744,-46.92 744,-48.73"/>
<text text-anchor="middle" x="771" y="-30.88" font-family="Helvetica,sans-Serif" font-size="10.00">DZ ch0</text>
</g>
<!-- dma_dz0&#45;&gt;hw_dz0 -->
<g id="edge9" class="edge">
<title>dma_dz0&#45;&gt;hw_dz0</title>
<path fill="none" stroke="#666666" d="M717.48,-159.37C727.87,-135.22 746.79,-91.27 759.12,-62.6"/>
<polygon fill="#666666" stroke="#666666" points="762.31,-64.04 763.05,-53.47 755.88,-61.27 762.31,-64.04"/>
</g>
<!-- hw_jenc -->
<g id="node15" class="node">
<title>hw_jenc</title>
<path fill="#eeeeee" stroke="black" d="M885.38,-48.73C885.38,-50.53 872.21,-52 856,-52 839.79,-52 826.62,-50.53 826.62,-48.73 826.62,-48.73 826.62,-19.27 826.62,-19.27 826.62,-17.47 839.79,-16 856,-16 872.21,-16 885.38,-17.47 885.38,-19.27 885.38,-19.27 885.38,-48.73 885.38,-48.73"/>
<path fill="none" stroke="black" d="M885.38,-48.73C885.38,-46.92 872.21,-45.45 856,-45.45 839.79,-45.45 826.62,-46.92 826.62,-48.73"/>
<text text-anchor="middle" x="856" y="-30.88" font-family="Helvetica,sans-Serif" font-size="10.00">JPEG enc</text>
</g>
<!-- dma_jenc&#45;&gt;hw_jenc -->
<g id="edge10" class="edge">
<title>dma_jenc&#45;&gt;hw_jenc</title>
<path fill="none" stroke="#666666" d="M856,-159.37C856,-135.43 856,-92.04 856,-63.37"/>
<polygon fill="#666666" stroke="#666666" points="859.5,-63.59 856,-53.59 852.5,-63.59 859.5,-63.59"/>
</g>
<!-- dma_jdec -->
<g id="node10" class="node">
<title>dma_jdec</title>
<path fill="#ffffff" stroke="black" d="M1048.25,-195.75C1048.25,-195.75 955.75,-195.75 955.75,-195.75 949.75,-195.75 943.75,-189.75 943.75,-183.75 943.75,-183.75 943.75,-171.75 943.75,-171.75 943.75,-165.75 949.75,-159.75 955.75,-159.75 955.75,-159.75 1048.25,-159.75 1048.25,-159.75 1054.25,-159.75 1060.25,-165.75 1060.25,-171.75 1060.25,-171.75 1060.25,-183.75 1060.25,-183.75 1060.25,-189.75 1054.25,-195.75 1048.25,-195.75"/>
<text text-anchor="middle" x="1002" y="-181" font-family="Helvetica,sans-Serif" font-size="10.00">enx_vdma_jdec.ko</text>
<text text-anchor="middle" x="1002" y="-168.25" font-family="Helvetica,sans-Serif" font-size="10.00">/dev/enx_vdma_jdec</text>
</g>
<!-- hw_jdec -->
<g id="node16" class="node">
<title>hw_jdec</title>
<path fill="#eeeeee" stroke="black" d="M973.38,-48.73C973.38,-50.53 960.21,-52 944,-52 927.79,-52 914.62,-50.53 914.62,-48.73 914.62,-48.73 914.62,-19.27 914.62,-19.27 914.62,-17.47 927.79,-16 944,-16 960.21,-16 973.38,-17.47 973.38,-19.27 973.38,-19.27 973.38,-48.73 973.38,-48.73"/>
<path fill="none" stroke="black" d="M973.38,-48.73C973.38,-46.92 960.21,-45.45 944,-45.45 927.79,-45.45 914.62,-46.92 914.62,-48.73"/>
<text text-anchor="middle" x="944" y="-30.88" font-family="Helvetica,sans-Serif" font-size="10.00">JPEG dec</text>
</g>
<!-- dma_jdec&#45;&gt;hw_jdec -->
<g id="edge11" class="edge">
<title>dma_jdec&#45;&gt;hw_jdec</title>
<path fill="none" stroke="#666666" d="M994.89,-159.37C985.01,-135.22 967.02,-91.27 955.29,-62.6"/>
<polygon fill="#666666" stroke="#666666" points="958.59,-61.41 951.56,-53.48 952.11,-64.06 958.59,-61.41"/>
</g>
<!-- dma_npu -->
<g id="node11" class="node">
<title>dma_npu</title>
<path fill="#ffffff" stroke="black" d="M1191.12,-195.75C1191.12,-195.75 1100.88,-195.75 1100.88,-195.75 1094.88,-195.75 1088.88,-189.75 1088.88,-183.75 1088.88,-183.75 1088.88,-171.75 1088.88,-171.75 1088.88,-165.75 1094.88,-159.75 1100.88,-159.75 1100.88,-159.75 1191.12,-159.75 1191.12,-159.75 1197.12,-159.75 1203.12,-165.75 1203.12,-171.75 1203.12,-171.75 1203.12,-183.75 1203.12,-183.75 1203.12,-189.75 1197.12,-195.75 1191.12,-195.75"/>
<text text-anchor="middle" x="1146" y="-181" font-family="Helvetica,sans-Serif" font-size="10.00">enx_vdma_npu.ko</text>
<text text-anchor="middle" x="1146" y="-168.25" font-family="Helvetica,sans-Serif" font-size="10.00">/dev/enx_vdma_npu</text>
</g>
<!-- hw_npu -->
<g id="node17" class="node">
<title>hw_npu</title>
<path fill="#eeeeee" stroke="black" d="M1075.5,-48.73C1075.5,-50.53 1059.14,-52 1039,-52 1018.86,-52 1002.5,-50.53 1002.5,-48.73 1002.5,-48.73 1002.5,-19.27 1002.5,-19.27 1002.5,-17.47 1018.86,-16 1039,-16 1059.14,-16 1075.5,-17.47 1075.5,-19.27 1075.5,-19.27 1075.5,-48.73 1075.5,-48.73"/>
<path fill="none" stroke="black" d="M1075.5,-48.73C1075.5,-46.92 1059.14,-45.45 1039,-45.45 1018.86,-45.45 1002.5,-46.92 1002.5,-48.73"/>
<text text-anchor="middle" x="1039" y="-30.88" font-family="Helvetica,sans-Serif" font-size="10.00">NPU engine</text>
</g>
<!-- dma_npu&#45;&gt;hw_npu -->
<g id="edge12" class="edge">
<title>dma_npu&#45;&gt;hw_npu</title>
<path fill="none" stroke="#666666" d="M1132.88,-159.37C1114.33,-134.79 1080.29,-89.7 1058.7,-61.1"/>
<polygon fill="#666666" stroke="#666666" points="1061.62,-59.16 1052.81,-53.29 1056.04,-63.38 1061.62,-59.16"/>
</g>
<!-- core -->
<g id="node12" class="node">
<title>core</title>
<polygon fill="lightgrey" stroke="none" points="414,-236.25 24,-236.25 24,-119.25 414,-119.25 414,-236.25"/>
<polygon fill="#ffffff" stroke="none" points="27,-179.25 27,-233.25 146,-233.25 146,-179.25 27,-179.25"/>
<polygon fill="none" stroke="black" points="27,-179.25 27,-233.25 146,-233.25 146,-179.25 27,-179.25"/>
<text text-anchor="start" x="44.88" y="-217.75" font-family="Helvetica,sans-Serif" font-weight="bold" font-size="10.00">Common ioctls</text>
<text text-anchor="start" x="34" y="-207.75" font-family="Helvetica,sans-Serif" font-size="10.00">ALLOC · FREE · MMAP</text>
<text text-anchor="start" x="44.12" y="-197.75" font-family="Helvetica,sans-Serif" font-size="10.00">EXPORT · IMPORT</text>
<text text-anchor="start" x="53.12" y="-187.75" font-family="Helvetica,sans-Serif" font-size="10.00">WAIT · ABORT</text>
<polygon fill="#ffffff" stroke="none" points="149,-179.25 149,-233.25 271,-233.25 271,-179.25 149,-179.25"/>
<polygon fill="none" stroke="black" points="149,-179.25 149,-233.25 271,-233.25 271,-179.25 149,-179.25"/>
<text text-anchor="start" x="156" y="-212.75" font-family="Helvetica,sans-Serif" font-weight="bold" font-size="10.00">SUBMIT dispatcher</text>
<text text-anchor="start" x="177" y="-202.75" font-family="Helvetica,sans-Serif" font-size="10.00">SYNC &#160;&#45; inline</text>
<text text-anchor="start" x="161.62" y="-192.75" font-family="Helvetica,sans-Serif" font-size="10.00">ASYNC &#45; workqueue</text>
<polygon fill="#fff9c4" stroke="none" points="274,-122.25 274,-233.25 411,-233.25 411,-122.25 274,-122.25"/>
<polygon fill="none" stroke="black" points="274,-122.25 274,-233.25 411,-233.25 411,-122.25 274,-122.25"/>
<text text-anchor="start" x="281" y="-214.25" font-family="Helvetica,sans-Serif" font-weight="bold" font-size="10.00">EXPORT_SYMBOL_GPL</text>
<text text-anchor="start" x="315.5" y="-204.25" font-family="Helvetica,sans-Serif" font-weight="bold" font-size="10.00">boundary</text>
<text text-anchor="start" x="297.5" y="-184.25" font-family="Helvetica,sans-Serif" font-size="10.00">enx_vdma_submit</text>
<text text-anchor="start" x="301.62" y="-174.25" font-family="Helvetica,sans-Serif" font-size="10.00">enx_vdma_abort</text>
<text text-anchor="start" x="282.88" y="-164.25" font-family="Helvetica,sans-Serif" font-size="10.00">enx_vdma_open/release</text>
<text text-anchor="start" x="288.12" y="-154.25" font-family="Helvetica,sans-Serif" font-size="10.00">enx_vdma_mmap/poll</text>
<text text-anchor="start" x="312.5" y="-144.25" font-family="Helvetica,sans-Serif" font-size="10.00">ioctl helpers</text>
<text text-anchor="start" x="310.62" y="-134.25" font-family="Helvetica,sans-Serif" font-size="10.00">core_register</text>
<polygon fill="#ffffff" stroke="none" points="27,-122.25 27,-176.25 146,-176.25 146,-122.25 27,-122.25"/>
<polygon fill="none" stroke="black" points="27,-122.25 27,-176.25 146,-176.25 146,-122.25 27,-122.25"/>
<text text-anchor="start" x="44.12" y="-160.75" font-family="Helvetica,sans-Serif" font-weight="bold" font-size="10.00">Memory model</text>
<text text-anchor="start" x="52.38" y="-150.75" font-family="Helvetica,sans-Serif" font-size="10.00">backing + buf</text>
<text text-anchor="start" x="68.5" y="-140.75" font-family="Helvetica,sans-Serif" font-size="10.00">(kref&#39;d)</text>
<text text-anchor="start" x="40.75" y="-130.75" font-family="Helvetica,sans-Serif" font-size="10.00">cross&#45;device share</text>
<polygon fill="#ffffff" stroke="none" points="149,-122.25 149,-176.25 271,-176.25 271,-122.25 149,-122.25"/>
<polygon fill="none" stroke="black" points="149,-122.25 149,-176.25 271,-176.25 271,-122.25 149,-122.25"/>
<text text-anchor="start" x="186.75" y="-155.75" font-family="Helvetica,sans-Serif" font-weight="bold" font-size="10.00">debugfs</text>
<text text-anchor="start" x="183" y="-145.75" font-family="Helvetica,sans-Serif" font-size="10.00">stats · bufs</text>
<text text-anchor="start" x="174.38" y="-135.75" font-family="Helvetica,sans-Serif" font-size="10.00">jobs · sessions</text>
</g>
<!-- core&#45;&gt;dma_font -->
<g id="edge6" class="edge">
<title>core:ops&#45;&gt;dma_font</title>
<path fill="none" stroke="black" stroke-dasharray="5,2" d="M422,-187.74C423.28,-190.17 425,-192.44 428.19,-193.75 454.4,-204.52 463.78,-196.88 491.94,-193.75 493.63,-193.56 495.35,-193.35 497.08,-193.11"/>
<ellipse fill="none" stroke="black" cx="501.34" cy="-192.46" rx="4" ry="4"/>
<text text-anchor="middle" x="460.06" y="-214.75" font-family="Helvetica,sans-Serif" font-size="10.00">core_register</text>
<text text-anchor="middle" x="460.06" y="-202" font-family="Helvetica,sans-Serif" font-size="10.00">&amp; ops</text>
</g>
</g>
</svg>
