<?xml version="1.0" encoding="UTF-8" standalone="no"?>
<!DOCTYPE svg PUBLIC "-//W3C//DTD SVG 1.1//EN"
 "http://www.w3.org/Graphics/SVG/1.1/DTD/svg11.dtd">
<!-- Generated by graphviz version 9.0.0 (20230911.1827)
 -->
<!-- Title: EN683_VDMA_SUBMIT Pages: 1 -->
<svg width="696pt" height="1057pt"
 viewBox="0.00 0.00 696.00 1056.75" xmlns="http://www.w3.org/2000/svg" xmlns:xlink="http://www.w3.org/1999/xlink">
<g id="graph0" class="graph" transform="scale(1 1) rotate(0) translate(4 1052.75)">
<title>EN683_VDMA_SUBMIT</title>
<polygon fill="white" stroke="none" points="-4,4 -4,-1052.75 692,-1052.75 692,4 -4,4"/>
<g id="clust1" class="cluster">
<title>cluster_sync</title>
<path fill="#e8f5e9" stroke="#2e7d32" d="M20,-164C20,-164 160,-164 160,-164 166,-164 172,-170 172,-176 172,-176 172,-710.5 172,-710.5 172,-716.5 166,-722.5 160,-722.5 160,-722.5 20,-722.5 20,-722.5 14,-722.5 8,-716.5 8,-710.5 8,-710.5 8,-176 8,-176 8,-170 14,-164 20,-164"/>
<text text-anchor="start" x="24.75" y="-706.2" font-family="Helvetica,sans-Serif" font-weight="bold" font-size="14.00">SYNC inline path</text>
</g>
<g id="clust2" class="cluster">
<title>cluster_async</title>
<path fill="#fff4e6" stroke="#cc6600" d="M340,-8C340,-8 668,-8 668,-8 674,-8 680,-14 680,-20 680,-20 680,-715.75 680,-715.75 680,-721.75 674,-727.75 668,-727.75 668,-727.75 340,-727.75 340,-727.75 334,-727.75 328,-721.75 328,-715.75 328,-715.75 328,-20 328,-20 328,-14 334,-8 340,-8"/>
<text text-anchor="start" x="411.38" y="-711.45" font-family="Helvetica,sans-Serif" font-weight="bold" font-size="14.00">ASYNC workqueue path</text>
</g>
<!-- user -->
<g id="node1" class="node">
<title>user</title>
<ellipse fill="#c8e6c9" stroke="black" cx="237" cy="-959.25" rx="135.41" ry="23.69"/>
<text text-anchor="middle" x="237" y="-962.5" font-family="Helvetica,sans-Serif" font-size="10.00">user&#45;space</text>
<text text-anchor="middle" x="237" y="-949.75" font-family="Helvetica,sans-Serif" font-size="10.00">ioctl(VDMAIOSET_*_SUBMIT, &amp;args)</text>
</g>
<!-- dispatcher -->
<g id="node2" class="node">
<title>dispatcher</title>
<polygon fill="#fff9c4" stroke="black" points="320.75,-811.25 153.25,-811.25 153.25,-765 320.75,-765 320.75,-811.25"/>
<text text-anchor="middle" x="237" y="-797.75" font-family="Helvetica,sans-Serif" font-size="10.00">enx_vdma_submit (dispatcher)</text>
<text text-anchor="middle" x="237" y="-785" font-family="Helvetica,sans-Serif" font-size="10.00">common validation:</text>
<text text-anchor="middle" x="237" y="-772.25" font-family="Helvetica,sans-Serif" font-size="10.00">src_count · blits ptr · blit_size</text>
</g>
<!-- user&#45;&gt;dispatcher -->
<g id="edge1" class="edge">
<title>user&#45;&gt;dispatcher</title>
<path fill="none" stroke="black" d="M237,-935.09C237,-906.16 237,-856.44 237,-823.18"/>
<polygon fill="black" stroke="black" points="240.5,-823.25 237,-813.25 233.5,-823.25 240.5,-823.25"/>
<text text-anchor="middle" x="289.5" y="-843.2" font-family="Helvetica,sans-Serif" font-size="9.00">device ioctl handler</text>
<text text-anchor="middle" x="289.5" y="-831.95" font-family="Helvetica,sans-Serif" font-size="9.00">calls enx_vdma_submit</text>
</g>
<!-- sync_alloc -->
<g id="node3" class="node">
<title>sync_alloc</title>
<polygon fill="#ffffff" stroke="black" points="164,-689.25 16,-689.25 16,-640.75 164,-640.75 164,-689.25"/>
<text text-anchor="middle" x="90" y="-675.75" font-family="Helvetica,sans-Serif" font-size="10.00">kzalloc(job)</text>
<text text-anchor="middle" x="90" y="-663" font-family="Helvetica,sans-Serif" font-size="10.00">flags = SYNC</text>
<text text-anchor="middle" x="90" y="-650.25" font-family="Helvetica,sans-Serif" font-size="10.00">blits = p&#45;&gt;blits (직접 reuse)</text>
</g>
<!-- dispatcher&#45;&gt;sync_alloc -->
<g id="edge14" class="edge">
<title>dispatcher&#45;&gt;sync_alloc</title>
<path fill="none" stroke="#2e7d32" stroke-width="2" d="M209.69,-764.63C186.83,-745.78 153.92,-718.67 128.4,-697.64"/>
<polygon fill="#2e7d32" stroke="#2e7d32" stroke-width="2" points="130.94,-695.2 121,-691.54 126.49,-700.6 130.94,-695.2"/>
<text text-anchor="middle" x="229.12" y="-738.45" font-family="Helvetica,sans-Serif" font-size="9.00">ENX_SUBMIT_SYNC</text>
</g>
<!-- async_alloc -->
<g id="node9" class="node">
<title>async_alloc</title>
<polygon fill="#ffffff" stroke="black" points="430,-694.5 342,-694.5 342,-635.5 430,-635.5 430,-694.5"/>
<text text-anchor="middle" x="386" y="-681" font-family="Helvetica,sans-Serif" font-size="10.00">kzalloc(job)</text>
<text text-anchor="middle" x="386" y="-668.25" font-family="Helvetica,sans-Serif" font-size="10.00">init_waitqueue</text>
<text text-anchor="middle" x="386" y="-655.5" font-family="Helvetica,sans-Serif" font-size="10.00">INIT_WORK</text>
<text text-anchor="middle" x="386" y="-642.75" font-family="Helvetica,sans-Serif" font-size="10.00">flags = ASYNC</text>
</g>
<!-- dispatcher&#45;&gt;async_alloc -->
<g id="edge15" class="edge">
<title>dispatcher&#45;&gt;async_alloc</title>
<path fill="none" stroke="#cc6600" stroke-width="2" d="M264.68,-764.63C285.98,-747.31 315.87,-723.01 340.65,-702.86"/>
<polygon fill="#cc6600" stroke="#cc6600" stroke-width="2" points="342.67,-705.73 348.22,-696.71 338.25,-700.3 342.67,-705.73"/>
<text text-anchor="middle" x="344.12" y="-738.45" font-family="Helvetica,sans-Serif" font-size="9.00">ENX_SUBMIT_ASYNC</text>
</g>
<!-- sync_fill -->
<g id="node4" class="node">
<title>sync_fill</title>
<polygon fill="#ffffff" stroke="black" points="135.5,-598.5 44.5,-598.5 44.5,-562.5 135.5,-562.5 135.5,-598.5"/>
<text text-anchor="middle" x="90" y="-584.88" font-family="Helvetica,sans-Serif" font-size="10.00">fill_job_buf × N</text>
<text text-anchor="middle" x="90" y="-572.12" font-family="Helvetica,sans-Serif" font-size="10.00">(buf ref 획득)</text>
</g>
<!-- sync_alloc&#45;&gt;sync_fill -->
<g id="edge2" class="edge">
<title>sync_alloc&#45;&gt;sync_fill</title>
<path fill="none" stroke="black" d="M90,-640.58C90,-631.16 90,-620.21 90,-610.32"/>
<polygon fill="black" stroke="black" points="93.5,-610.46 90,-600.46 86.5,-610.46 93.5,-610.46"/>
</g>
<!-- sync_lock -->
<g id="node5" class="node">
<title>sync_lock</title>
<polygon fill="#fff3e0" stroke="black" points="147.12,-525.5 32.88,-525.5 32.88,-489.5 147.12,-489.5 147.12,-525.5"/>
<text text-anchor="middle" x="90" y="-510.75" font-family="Helvetica,sans-Serif" font-size="10.00">mutex_lock_killable</text>
<text text-anchor="middle" x="90" y="-498" font-family="Helvetica,sans-Serif" font-size="10.00">(&amp;dev&#45;&gt;hw_lock)</text>
</g>
<!-- sync_fill&#45;&gt;sync_lock -->
<g id="edge3" class="edge">
<title>sync_fill&#45;&gt;sync_lock</title>
<path fill="none" stroke="black" d="M90,-562.31C90,-554.73 90,-545.6 90,-537.04"/>
<polygon fill="black" stroke="black" points="93.5,-537.04 90,-527.04 86.5,-537.04 93.5,-537.04"/>
</g>
<!-- sync_run -->
<g id="node6" class="node">
<title>sync_run</title>
<polygon fill="#bbdefb" stroke="black" points="148.25,-452.5 31.75,-452.5 31.75,-404 148.25,-404 148.25,-452.5"/>
<text text-anchor="middle" x="90" y="-439" font-family="Helvetica,sans-Serif" font-size="10.00">ops&#45;&gt;hw_run_once()</text>
<text text-anchor="middle" x="90" y="-426.25" font-family="Helvetica,sans-Serif" font-size="10.00">HW programming</text>
<text text-anchor="middle" x="90" y="-413.5" font-family="Helvetica,sans-Serif" font-size="10.00">(IRQ wait 포함)</text>
</g>
<!-- sync_lock&#45;&gt;sync_run -->
<g id="edge4" class="edge">
<title>sync_lock&#45;&gt;sync_run</title>
<path fill="none" stroke="black" d="M90,-489.36C90,-481.88 90,-472.82 90,-464.03"/>
<polygon fill="black" stroke="black" points="93.5,-464.3 90,-454.3 86.5,-464.31 93.5,-464.3"/>
</g>
<!-- sync_unlock -->
<g id="node7" class="node">
<title>sync_unlock</title>
<polygon fill="#fff3e0" stroke="black" points="140.38,-359.62 39.62,-359.62 39.62,-323.62 140.38,-323.62 140.38,-359.62"/>
<text text-anchor="middle" x="90" y="-344.88" font-family="Helvetica,sans-Serif" font-size="10.00">mutex_unlock</text>
<text text-anchor="middle" x="90" y="-332.12" font-family="Helvetica,sans-Serif" font-size="10.00">(&amp;dev&#45;&gt;hw_lock)</text>
</g>
<!-- sync_run&#45;&gt;sync_unlock -->
<g id="edge5" class="edge">
<title>sync_run&#45;&gt;sync_unlock</title>
<path fill="none" stroke="black" d="M90,-403.68C90,-393.59 90,-381.71 90,-371.13"/>
<polygon fill="black" stroke="black" points="93.5,-371.41 90,-361.41 86.5,-371.41 93.5,-371.41"/>
</g>
<!-- sync_cleanup -->
<g id="node8" class="node">
<title>sync_cleanup</title>
<polygon fill="#ffffff" stroke="black" points="131.38,-208 48.62,-208 48.62,-172 131.38,-172 131.38,-208"/>
<text text-anchor="middle" x="90" y="-193.25" font-family="Helvetica,sans-Serif" font-size="10.00">drop_buf_refs</text>
<text text-anchor="middle" x="90" y="-180.5" font-family="Helvetica,sans-Serif" font-size="10.00">kfree(job)</text>
</g>
<!-- sync_unlock&#45;&gt;sync_cleanup -->
<g id="edge6" class="edge">
<title>sync_unlock&#45;&gt;sync_cleanup</title>
<path fill="none" stroke="black" d="M90,-323.17C90,-297.72 90,-250.13 90,-219.54"/>
<polygon fill="black" stroke="black" points="93.5,-219.86 90,-209.86 86.5,-219.86 93.5,-219.86"/>
</g>
<!-- ret_sync -->
<g id="node17" class="node">
<title>ret_sync</title>
<ellipse fill="#c8e6c9" stroke="black" cx="90" cy="-45.5" rx="65.41" ry="25.28"/>
<text text-anchor="middle" x="90" y="-49.88" font-family="Helvetica,sans-Serif" font-size="10.00">user 받음:</text>
<text text-anchor="middle" x="90" y="-34.88" font-family="Helvetica,sans-Serif" font-size="10.00">return 0 / &#45;errno</text>
</g>
<!-- sync_cleanup&#45;&gt;ret_sync -->
<g id="edge16" class="edge">
<title>sync_cleanup&#45;&gt;ret_sync</title>
<path fill="none" stroke="black" d="M90,-171.53C90,-146.33 90,-99.69 90,-71.05"/>
</g>
<!-- async_kmemdup -->
<g id="node10" class="node">
<title>async_kmemdup</title>
<polygon fill="#ffffff" stroke="black" points="452,-598.5 340,-598.5 340,-562.5 452,-562.5 452,-598.5"/>
<text text-anchor="middle" x="396" y="-584.88" font-family="Helvetica,sans-Serif" font-size="10.00">kmemdup(p&#45;&gt;blits)</text>
<text text-anchor="middle" x="396" y="-572.12" font-family="Helvetica,sans-Serif" font-size="10.00">(kernel&#45;owned 복제)</text>
</g>
<!-- async_alloc&#45;&gt;async_kmemdup -->
<g id="edge7" class="edge">
<title>async_alloc&#45;&gt;async_kmemdup</title>
<path fill="none" stroke="black" d="M389.5,-635.15C390.48,-627.03 391.55,-618.21 392.53,-610.1"/>
<polygon fill="black" stroke="black" points="395.98,-610.77 393.71,-600.42 389.03,-609.92 395.98,-610.77"/>
</g>
<!-- async_fill -->
<g id="node11" class="node">
<title>async_fill</title>
<polygon fill="#ffffff" stroke="black" points="443.5,-525.5 352.5,-525.5 352.5,-489.5 443.5,-489.5 443.5,-525.5"/>
<text text-anchor="middle" x="398" y="-511.88" font-family="Helvetica,sans-Serif" font-size="10.00">fill_job_buf × N</text>
<text text-anchor="middle" x="398" y="-499.12" font-family="Helvetica,sans-Serif" font-size="10.00">(buf ref 획득)</text>
</g>
<!-- async_kmemdup&#45;&gt;async_fill -->
<g id="edge8" class="edge">
<title>async_kmemdup&#45;&gt;async_fill</title>
<path fill="none" stroke="black" d="M396.48,-562.31C396.7,-554.64 396.96,-545.39 397.2,-536.74"/>
<polygon fill="black" stroke="black" points="400.69,-537.14 397.48,-527.04 393.7,-536.94 400.69,-537.14"/>
</g>
<!-- async_xa -->
<g id="node12" class="node">
<title>async_xa</title>
<polygon fill="#ffffff" stroke="black" points="451.62,-446.25 346.38,-446.25 346.38,-410.25 451.62,-410.25 451.62,-446.25"/>
<text text-anchor="middle" x="399" y="-431.5" font-family="Helvetica,sans-Serif" font-size="10.00">xa_alloc(job_id)</text>
<text text-anchor="middle" x="399" y="-418.75" font-family="Helvetica,sans-Serif" font-size="10.00">list_add(vs&#45;&gt;jobs)</text>
</g>
<!-- async_fill&#45;&gt;async_xa -->
<g id="edge9" class="edge">
<title>async_fill&#45;&gt;async_xa</title>
<path fill="none" stroke="black" d="M398.22,-489.36C398.34,-480.12 398.49,-468.48 398.63,-457.91"/>
<polygon fill="black" stroke="black" points="402.13,-458.17 398.76,-448.13 395.13,-458.08 402.13,-458.17"/>
</g>
<!-- async_queue -->
<g id="node13" class="node">
<title>async_queue</title>
<polygon fill="#bbdefb" stroke="black" points="463.5,-367 336.5,-367 336.5,-316.25 463.5,-316.25 463.5,-367"/>
<text text-anchor="middle" x="400" y="-353.5" font-family="Helvetica,sans-Serif" font-size="10.00">queue_work(dev&#45;&gt;wq)</text>
<text text-anchor="middle" x="400" y="-340.75" font-family="Helvetica,sans-Serif" font-size="10.00">job_id 반환 후</text>
<text text-anchor="middle" x="400" y="-325.75" font-family="Helvetica,sans-Serif" font-size="10.00">즉시 return</text>
</g>
<!-- async_xa&#45;&gt;async_queue -->
<g id="edge10" class="edge">
<title>async_xa&#45;&gt;async_queue</title>
<path fill="none" stroke="black" d="M399.2,-410.12C399.31,-401.12 399.44,-389.71 399.57,-378.85"/>
<polygon fill="black" stroke="black" points="403.07,-378.98 399.69,-368.94 396.07,-378.9 403.07,-378.98"/>
</g>
<!-- worker -->
<g id="node14" class="node">
<title>worker</title>
<polygon fill="#fff59d" stroke="black" points="504.25,-257.75 345.75,-257.75 345.75,-122.25 504.25,-122.25 504.25,-257.75"/>
<text text-anchor="middle" x="425" y="-244.25" font-family="Helvetica,sans-Serif" font-size="10.00">vdma_job_worker (kthread)</text>
<text text-anchor="middle" x="425" y="-231.5" font-family="Helvetica,sans-Serif" font-size="10.00">─────────────────</text>
<text text-anchor="middle" x="425" y="-218.75" font-family="Helvetica,sans-Serif" font-size="10.00">mutex_lock(hw_lock)</text>
<text text-anchor="middle" x="425" y="-206" font-family="Helvetica,sans-Serif" font-size="10.00">ops&#45;&gt;hw_run_once()</text>
<text text-anchor="middle" x="425" y="-193.25" font-family="Helvetica,sans-Serif" font-size="10.00">mutex_unlock</text>
<text text-anchor="middle" x="425" y="-180.5" font-family="Helvetica,sans-Serif" font-size="10.00">vdma_job_finish:</text>
<text text-anchor="middle" x="425" y="-167.75" font-family="Helvetica,sans-Serif" font-size="10.00"> &#160;drop_buf_refs</text>
<text text-anchor="middle" x="425" y="-155" font-family="Helvetica,sans-Serif" font-size="10.00"> &#160;job&#45;&gt;done = true</text>
<text text-anchor="middle" x="425" y="-142.25" font-family="Helvetica,sans-Serif" font-size="10.00"> &#160;wake_up_all (waiters)</text>
<text text-anchor="middle" x="425" y="-129.5" font-family="Helvetica,sans-Serif" font-size="10.00"> &#160;wake_up_interruptible (poll)</text>
</g>
<!-- async_queue&#45;&gt;worker -->
<g id="edge11" class="edge">
<title>async_queue&#45;&gt;worker</title>
<path fill="none" stroke="black" stroke-dasharray="5,2" d="M404.13,-315.92C406.3,-302.91 409.1,-286.17 411.94,-269.19"/>
<polygon fill="black" stroke="black" points="415.35,-269.97 413.55,-259.53 408.45,-268.82 415.35,-269.97"/>
<text text-anchor="middle" x="455" y="-289.7" font-family="Helvetica,sans-Serif" font-size="9.00">ordered_workqueue</text>
<text text-anchor="middle" x="455" y="-278.45" font-family="Helvetica,sans-Serif" font-size="9.00">picks up</text>
</g>
<!-- ret_async -->
<g id="node18" class="node">
<title>ret_async</title>
<ellipse fill="#c8e6c9" stroke="black" cx="250" cy="-190" rx="69.65" ry="25.28"/>
<text text-anchor="middle" x="250" y="-194.38" font-family="Helvetica,sans-Serif" font-size="10.00">user 받음:</text>
<text text-anchor="middle" x="250" y="-179.38" font-family="Helvetica,sans-Serif" font-size="10.00">return job_id_out</text>
</g>
<!-- async_queue&#45;&gt;ret_async -->
<g id="edge17" class="edge">
<title>async_queue&#45;&gt;ret_async</title>
<path fill="none" stroke="black" d="M375.23,-315.92C346.94,-287.7 301,-241.87 273.32,-214.27"/>
</g>
<!-- wait_ioctl -->
<g id="node15" class="node">
<title>wait_ioctl</title>
<polygon fill="#e1bee7" stroke="black" points="514.38,-75 335.62,-75 335.62,-16 514.38,-16 514.38,-75"/>
<text text-anchor="middle" x="425" y="-61.5" font-family="Helvetica,sans-Serif" font-size="10.00">vdma_do_wait (user thread)</text>
<text text-anchor="middle" x="425" y="-48.75" font-family="Helvetica,sans-Serif" font-size="10.00">wait_event_interruptible_timeout</text>
<text text-anchor="middle" x="425" y="-36" font-family="Helvetica,sans-Serif" font-size="10.00">xa_cmpxchg(job)</text>
<text text-anchor="middle" x="425" y="-23.25" font-family="Helvetica,sans-Serif" font-size="10.00">copy result to user</text>
</g>
<!-- worker&#45;&gt;wait_ioctl -->
<g id="edge12" class="edge">
<title>worker&#45;&gt;wait_ioctl</title>
<path fill="none" stroke="black" stroke-dasharray="5,2" d="M425,-121.92C425,-109.84 425,-97.59 425,-86.58"/>
<polygon fill="black" stroke="black" points="428.5,-86.7 425,-76.7 421.5,-86.7 428.5,-86.7"/>
<text text-anchor="middle" x="444.88" y="-95.7" font-family="Helvetica,sans-Serif" font-size="9.00">wake_up</text>
</g>
<!-- poll_ioctl -->
<g id="node16" class="node">
<title>poll_ioctl</title>
<polygon fill="#e1bee7" stroke="black" points="671.88,-68.62 532.12,-68.62 532.12,-22.38 671.88,-22.38 671.88,-68.62"/>
<text text-anchor="middle" x="602" y="-55.12" font-family="Helvetica,sans-Serif" font-size="10.00">enx_vdma_poll (epoll)</text>
<text text-anchor="middle" x="602" y="-42.38" font-family="Helvetica,sans-Serif" font-size="10.00">poll_wait(poll_wq)</text>
<text text-anchor="middle" x="602" y="-29.62" font-family="Helvetica,sans-Serif" font-size="10.00">list_for_each: check done</text>
</g>
<!-- worker&#45;&gt;poll_ioctl -->
<g id="edge13" class="edge">
<title>worker&#45;&gt;poll_ioctl</title>
<path fill="none" stroke="black" stroke-dasharray="5,2" d="M504.7,-124.84C525.79,-107.85 547.57,-90.32 565.15,-76.17"/>
<polygon fill="black" stroke="black" points="567.17,-79.04 572.76,-70.04 562.78,-73.58 567.17,-79.04"/>
<text text-anchor="middle" x="589.25" y="-95.7" font-family="Helvetica,sans-Serif" font-size="9.00">wake_up_interruptible</text>
</g>
<!-- note -->
<g id="node19" class="node">
<title>note</title>
<polygon fill="#fff3e0" stroke="#ef6c00" points="585.25,-1048.75 390.75,-1048.75 390.75,-869.75 591.25,-869.75 591.25,-1042.75 585.25,-1048.75"/>
<polyline fill="none" stroke="#ef6c00" points="585.25,-1048.75 585.25,-1042.75"/>
<polyline fill="none" stroke="#ef6c00" points="591.25,-1042.75 585.25,-1042.75"/>
<text text-anchor="start" x="398.75" y="-1035.25" font-family="Helvetica,sans-Serif" font-size="10.00">── 차이 요약 ──</text>
<text text-anchor="start" x="398.75" y="-1008.25" font-family="Helvetica,sans-Serif" font-size="10.00">SYNC : workqueue 우회. ioctl thread 가</text>
<text text-anchor="start" x="398.75" y="-993.25" font-family="Helvetica,sans-Serif" font-size="10.00"> &#160;&#160;&#160;&#160;&#160;&#160;hw_run_once 직접 실행.</text>
<text text-anchor="start" x="398.75" y="-978.25" font-family="Helvetica,sans-Serif" font-size="10.00"> &#160;&#160;&#160;&#160;&#160;&#160;컨텍스트 스위치 절약.</text>
<text text-anchor="start" x="398.75" y="-951.25" font-family="Helvetica,sans-Serif" font-size="10.00">ASYNC: worker 가 HW 작업.</text>
<text text-anchor="start" x="398.75" y="-936.25" font-family="Helvetica,sans-Serif" font-size="10.00"> &#160;&#160;&#160;&#160;&#160;&#160;ioctl 즉시 return.</text>
<text text-anchor="start" x="398.75" y="-921.25" font-family="Helvetica,sans-Serif" font-size="10.00"> &#160;&#160;&#160;&#160;&#160;&#160;후속 WAIT/poll 로 완료 통지.</text>
<text text-anchor="start" x="398.75" y="-894.25" font-family="Helvetica,sans-Serif" font-size="10.00">두 경로 모두 hw_lock 으로 직렬화 —</text>
<text text-anchor="start" x="398.75" y="-879.25" font-family="Helvetica,sans-Serif" font-size="10.00">HW 는 동시에 한 job 만 실행.</text>
</g>
</g>
</svg>
