<?xml version="1.0" encoding="UTF-8" standalone="no"?>
<!DOCTYPE svg PUBLIC "-//W3C//DTD SVG 1.1//EN"
 "http://www.w3.org/Graphics/SVG/1.1/DTD/svg11.dtd">
<!-- Generated by graphviz version 9.0.0 (20230911.1827)
 -->
<!-- Title: EN683_VDMA Pages: 1 -->
<svg width="1237pt" height="586pt"
 viewBox="0.00 0.00 1237.00 585.50" xmlns="http://www.w3.org/2000/svg" xmlns:xlink="http://www.w3.org/1999/xlink">
<g id="graph0" class="graph" transform="scale(1 1) rotate(0) translate(4 581.5)">
<title>EN683_VDMA</title>
<polygon fill="white" stroke="none" points="-4,4 -4,-581.5 1233,-581.5 1233,4 -4,4"/>
<g id="clust1" class="cluster">
<title>cluster_user</title>
<path fill="#e8f5e9" stroke="#2e7d32" d="M586,-353.25C586,-353.25 1124,-353.25 1124,-353.25 1130,-353.25 1136,-359.25 1136,-365.25 1136,-365.25 1136,-557.5 1136,-557.5 1136,-563.5 1130,-569.5 1124,-569.5 1124,-569.5 586,-569.5 586,-569.5 580,-569.5 574,-563.5 574,-557.5 574,-557.5 574,-365.25 574,-365.25 574,-359.25 580,-353.25 586,-353.25"/>
<text text-anchor="start" x="811.12" y="-553.2" font-family="Helvetica,sans-Serif" font-weight="bold" font-size="14.00">User Space</text>
</g>
<g id="clust3" class="cluster">
<title>cluster_kernel</title>
<path fill="#f5f5f5" stroke="#666666" d="M20,-103.25C20,-103.25 1209,-103.25 1209,-103.25 1215,-103.25 1221,-109.25 1221,-115.25 1221,-115.25 1221,-290.75 1221,-290.75 1221,-296.75 1215,-302.75 1209,-302.75 1209,-302.75 20,-302.75 20,-302.75 14,-302.75 8,-296.75 8,-290.75 8,-290.75 8,-115.25 8,-115.25 8,-109.25 14,-103.25 20,-103.25"/>
<text text-anchor="start" x="563.12" y="-286.45" font-family="Helvetica,sans-Serif" font-weight="bold" font-size="14.00">Kernel Space</text>
</g>
<g id="clust4" class="cluster">
<title>cluster_device</title>
<path fill="#fff4e6" stroke="#cc6600" d="M510,-151.75C510,-151.75 1201,-151.75 1201,-151.75 1207,-151.75 1213,-157.75 1213,-163.75 1213,-163.75 1213,-217 1213,-217 1213,-223 1207,-229 1201,-229 1201,-229 510,-229 510,-229 504,-229 498,-223 498,-217 498,-217 498,-163.75 498,-163.75 498,-157.75 504,-151.75 510,-151.75"/>
<text text-anchor="middle" x="855.5" y="-211.7" font-family="Helvetica,sans-Serif" font-size="14.00">Drv Modules</text>
</g>
<g id="clust6" class="cluster">
<title>cluster_core</title>
<path fill="#e1f5ff" stroke="#0066cc" d="M28,-111.25C28,-111.25 410,-111.25 410,-111.25 416,-111.25 422,-117.25 422,-123.25 422,-123.25 422,-257.5 422,-257.5 422,-263.5 416,-269.5 410,-269.5 410,-269.5 28,-269.5 28,-269.5 22,-269.5 16,-263.5 16,-257.5 16,-257.5 16,-123.25 16,-123.25 16,-117.25 22,-111.25 28,-111.25"/>
<text text-anchor="start" x="135" y="-253.2" font-family="Helvetica,sans-Serif" font-weight="bold" font-size="14.00">enx_vdma.ko — CORE</text>
</g>
<g id="clust8" class="cluster">
<title>cluster_hw</title>
<path fill="#fafafa" stroke="#999999" d="M640,-8C640,-8 1053,-8 1053,-8 1059,-8 1065,-14 1065,-20 1065,-20 1065,-73.25 1065,-73.25 1065,-79.25 1059,-85.25 1053,-85.25 1053,-85.25 640,-85.25 640,-85.25 634,-85.25 628,-79.25 628,-73.25 628,-73.25 628,-20 628,-20 628,-14 634,-8 640,-8"/>
<text text-anchor="start" x="780.88" y="-68.95" font-family="Helvetica,sans-Serif" font-weight="bold" font-size="14.00">HW (EN683 SoC)</text>
</g>
<!-- app_font -->
<g id="node1" class="node">
<title>app_font</title>
<polygon fill="#ffffff" stroke="black" points="1128.2,-536.25 1041.8,-536.25 1041.8,-500.25 1128.2,-500.25 1128.2,-536.25"/>
<text text-anchor="middle" x="1085" y="-515.12" font-family="Helvetica,sans-Serif" font-size="10.00">font app</text>
</g>
<!-- lib -->
<g id="node6" class="node">
<title>lib</title>
<polygon fill="#c8e6c9" stroke="black" points="973.62,-449.25 740.38,-449.25 736.38,-445.25 736.38,-361.25 969.62,-361.25 973.62,-365.25 973.62,-449.25"/>
<polyline fill="none" stroke="black" points="969.62,-445.25 736.38,-445.25"/>
<polyline fill="none" stroke="black" points="969.62,-445.25 969.62,-361.25"/>
<polyline fill="none" stroke="black" points="969.62,-445.25 973.62,-449.25"/>
<text text-anchor="start" x="744.38" y="-426.75" font-family="Helvetica,sans-Serif" font-weight="bold" font-size="10.00">libenxmedialink.so / libenxmedialink.a</text>
<text text-anchor="start" x="795" y="-416.75" font-family="Helvetica,sans-Serif" font-style="italic" font-size="10.00">Functions&#45;type singleton</text>
<text text-anchor="start" x="822.38" y="-396.75" font-family="Helvetica,sans-Serif" font-size="10.00">&#45; open / close</text>
<text text-anchor="start" x="828" y="-386.75" font-family="Helvetica,sans-Serif" font-size="10.00">&#45; execution</text>
<text text-anchor="start" x="810" y="-376.75" font-family="Helvetica,sans-Serif" font-size="10.00">&#45; buffer alloc / free</text>
<text text-anchor="start" x="799.5" y="-366.75" font-family="Helvetica,sans-Serif" font-size="10.00">&#45; buffer export / import</text>
</g>
<!-- app_font&#45;&gt;lib -->
<g id="edge1" class="edge">
<title>app_font&#45;&gt;lib</title>
<path fill="none" stroke="black" d="M1048.81,-499.78C1023.59,-487.61 988.62,-470.74 955.32,-454.67"/>
<polygon fill="black" stroke="black" points="956.94,-451.56 946.42,-450.37 953.9,-457.87 956.94,-451.56"/>
</g>
<!-- app_scaler0 -->
<g id="node2" class="node">
<title>app_scaler0</title>
<polygon fill="#ffffff" stroke="black" points="1013.2,-536.25 926.8,-536.25 926.8,-500.25 1013.2,-500.25 1013.2,-536.25"/>
<text text-anchor="middle" x="970" y="-515.12" font-family="Helvetica,sans-Serif" font-size="10.00">scaler app</text>
</g>
<!-- app_scaler0&#45;&gt;lib -->
<g id="edge2" class="edge">
<title>app_scaler0&#45;&gt;lib</title>
<path fill="none" stroke="black" d="M952.03,-499.91C940.09,-488.38 923.74,-472.6 907.86,-457.27"/>
<polygon fill="black" stroke="black" points="910.34,-454.8 900.72,-450.38 905.48,-459.84 910.34,-454.8"/>
</g>
<!-- app_scaler1 -->
<g id="node3" class="node">
<title>app_scaler1</title>
<polygon fill="#ffffff" stroke="black" points="898.2,-536.25 811.8,-536.25 811.8,-500.25 898.2,-500.25 898.2,-536.25"/>
<text text-anchor="middle" x="855" y="-515.12" font-family="Helvetica,sans-Serif" font-size="10.00">scaler app</text>
</g>
<!-- app_scaler1&#45;&gt;lib -->
<g id="edge3" class="edge">
<title>app_scaler1&#45;&gt;lib</title>
<path fill="none" stroke="black" d="M855,-499.91C855,-489.23 855,-474.89 855,-460.65"/>
<polygon fill="black" stroke="black" points="858.5,-460.84 855,-450.84 851.5,-460.84 858.5,-460.84"/>
</g>
<!-- app_jenc -->
<g id="node4" class="node">
<title>app_jenc</title>
<polygon fill="#ffffff" stroke="black" points="783.2,-536.25 696.8,-536.25 696.8,-500.25 783.2,-500.25 783.2,-536.25"/>
<text text-anchor="middle" x="740" y="-515.12" font-family="Helvetica,sans-Serif" font-size="10.00">jpegenc app</text>
</g>
<!-- app_jenc&#45;&gt;lib -->
<g id="edge4" class="edge">
<title>app_jenc&#45;&gt;lib</title>
<path fill="none" stroke="black" d="M757.97,-499.91C769.91,-488.38 786.26,-472.6 802.14,-457.27"/>
<polygon fill="black" stroke="black" points="804.52,-459.84 809.28,-450.38 799.66,-454.8 804.52,-459.84"/>
</g>
<!-- app_jdec -->
<g id="node5" class="node">
<title>app_jdec</title>
<polygon fill="#ffffff" stroke="black" points="668.2,-536.25 581.8,-536.25 581.8,-500.25 668.2,-500.25 668.2,-536.25"/>
<text text-anchor="middle" x="625" y="-515.12" font-family="Helvetica,sans-Serif" font-size="10.00">jpegdec app</text>
</g>
<!-- app_jdec&#45;&gt;lib -->
<g id="edge5" class="edge">
<title>app_jdec&#45;&gt;lib</title>
<path fill="none" stroke="black" d="M661.19,-499.78C686.41,-487.61 721.38,-470.74 754.68,-454.67"/>
<polygon fill="black" stroke="black" points="756.1,-457.87 763.58,-450.37 753.06,-451.56 756.1,-457.87"/>
</g>
<!-- dma_dz1 -->
<g id="node9" class="node">
<title>dma_dz1</title>
<path fill="#ffffff" stroke="black" d="M901.25,-195.75C901.25,-195.75 808.75,-195.75 808.75,-195.75 802.75,-195.75 796.75,-189.75 796.75,-183.75 796.75,-183.75 796.75,-171.75 796.75,-171.75 796.75,-165.75 802.75,-159.75 808.75,-159.75 808.75,-159.75 901.25,-159.75 901.25,-159.75 907.25,-159.75 913.25,-165.75 913.25,-171.75 913.25,-171.75 913.25,-183.75 913.25,-183.75 913.25,-189.75 907.25,-195.75 901.25,-195.75"/>
<text text-anchor="middle" x="855" y="-181" font-family="Helvetica,sans-Serif" font-size="10.00">enx_vdma&#45;dz.ko ch1</text>
<text text-anchor="middle" x="855" y="-168.25" font-family="Helvetica,sans-Serif" font-size="10.00">/dev/enx_vdma_dz1</text>
</g>
<!-- lib&#45;&gt;dma_dz1 -->
<g id="edge7" class="edge">
<title>lib&#45;&gt;dma_dz1</title>
<path fill="none" stroke="#1976d2" stroke-width="2" d="M855,-360.77C855,-327.06 855,-279.86 855,-241.97"/>
<polygon fill="#1976d2" stroke="#1976d2" stroke-width="2" points="858.5,-242.02 855,-232.02 851.5,-242.02 858.5,-242.02"/>
<text text-anchor="middle" x="885.75" y="-326.75" font-family="Helvetica,sans-Serif" font-size="10.00">ioctl / mmap</text>
<text text-anchor="middle" x="885.75" y="-314" font-family="Helvetica,sans-Serif" font-size="10.00">via /dev</text>
</g>
<!-- dma_font -->
<g id="node7" class="node">
<title>dma_font</title>
<path fill="#ffffff" stroke="black" d="M609.88,-195.75C609.88,-195.75 518.12,-195.75 518.12,-195.75 512.12,-195.75 506.12,-189.75 506.12,-183.75 506.12,-183.75 506.12,-171.75 506.12,-171.75 506.12,-165.75 512.12,-159.75 518.12,-159.75 518.12,-159.75 609.88,-159.75 609.88,-159.75 615.88,-159.75 621.88,-165.75 621.88,-171.75 621.88,-171.75 621.88,-183.75 621.88,-183.75 621.88,-189.75 615.88,-195.75 609.88,-195.75"/>
<text text-anchor="middle" x="564" y="-181" font-family="Helvetica,sans-Serif" font-size="10.00">enx_vdma&#45;font.ko</text>
<text text-anchor="middle" x="564" y="-168.25" font-family="Helvetica,sans-Serif" font-size="10.00">/dev/enx_vdma_font</text>
</g>
<!-- hw_font -->
<g id="node13" class="node">
<title>hw_font</title>
<path fill="#eeeeee" stroke="black" d="M715.5,-48.73C715.5,-50.53 697.8,-52 676,-52 654.2,-52 636.5,-50.53 636.5,-48.73 636.5,-48.73 636.5,-19.27 636.5,-19.27 636.5,-17.47 654.2,-16 676,-16 697.8,-16 715.5,-17.47 715.5,-19.27 715.5,-19.27 715.5,-48.73 715.5,-48.73"/>
<path fill="none" stroke="black" d="M715.5,-48.73C715.5,-46.92 697.8,-45.45 676,-45.45 654.2,-45.45 636.5,-46.92 636.5,-48.73"/>
<text text-anchor="middle" x="676" y="-30.88" font-family="Helvetica,sans-Serif" font-size="10.00">FONT engine</text>
</g>
<!-- dma_font&#45;&gt;hw_font -->
<g id="edge8" class="edge">
<title>dma_font&#45;&gt;hw_font</title>
<path fill="none" stroke="#666666" d="M577.73,-159.37C597.15,-134.79 632.78,-89.7 655.38,-61.1"/>
<polygon fill="#666666" stroke="#666666" points="658.11,-63.28 661.57,-53.27 652.62,-58.94 658.11,-63.28"/>
</g>
<!-- dma_dz0 -->
<g id="node8" class="node">
<title>dma_dz0</title>
<path fill="#ffffff" stroke="black" d="M755.25,-195.75C755.25,-195.75 662.75,-195.75 662.75,-195.75 656.75,-195.75 650.75,-189.75 650.75,-183.75 650.75,-183.75 650.75,-171.75 650.75,-171.75 650.75,-165.75 656.75,-159.75 662.75,-159.75 662.75,-159.75 755.25,-159.75 755.25,-159.75 761.25,-159.75 767.25,-165.75 767.25,-171.75 767.25,-171.75 767.25,-183.75 767.25,-183.75 767.25,-189.75 761.25,-195.75 755.25,-195.75"/>
<text text-anchor="middle" x="709" y="-181" font-family="Helvetica,sans-Serif" font-size="10.00">enx_vdma&#45;dz.ko ch0</text>
<text text-anchor="middle" x="709" y="-168.25" font-family="Helvetica,sans-Serif" font-size="10.00">/dev/enx_vdma_dz0</text>
</g>
<!-- hw_dz0 -->
<g id="node14" class="node">
<title>hw_dz0</title>
<path fill="#eeeeee" stroke="black" d="M799,-48.73C799,-50.53 786.9,-52 772,-52 757.1,-52 745,-50.53 745,-48.73 745,-48.73 745,-19.27 745,-19.27 745,-17.47 757.1,-16 772,-16 786.9,-16 799,-17.47 799,-19.27 799,-19.27 799,-48.73 799,-48.73"/>
<path fill="none" stroke="black" d="M799,-48.73C799,-46.92 786.9,-45.45 772,-45.45 757.1,-45.45 745,-46.92 745,-48.73"/>
<text text-anchor="middle" x="772" y="-30.88" font-family="Helvetica,sans-Serif" font-size="10.00">DZ ch0</text>
</g>
<!-- dma_dz0&#45;&gt;hw_dz0 -->
<g id="edge9" class="edge">
<title>dma_dz0&#45;&gt;hw_dz0</title>
<path fill="none" stroke="#666666" d="M716.73,-159.37C727.5,-135.11 747.17,-90.88 759.9,-62.22"/>
<polygon fill="#666666" stroke="#666666" points="762.93,-64.02 763.79,-53.46 756.53,-61.18 762.93,-64.02"/>
</g>
<!-- hw_dz1 -->
<g id="node15" class="node">
<title>hw_dz1</title>
<path fill="#eeeeee" stroke="black" d="M882,-48.73C882,-50.53 869.9,-52 855,-52 840.1,-52 828,-50.53 828,-48.73 828,-48.73 828,-19.27 828,-19.27 828,-17.47 840.1,-16 855,-16 869.9,-16 882,-17.47 882,-19.27 882,-19.27 882,-48.73 882,-48.73"/>
<path fill="none" stroke="black" d="M882,-48.73C882,-46.92 869.9,-45.45 855,-45.45 840.1,-45.45 828,-46.92 828,-48.73"/>
<text text-anchor="middle" x="855" y="-30.88" font-family="Helvetica,sans-Serif" font-size="10.00">DZ ch1</text>
</g>
<!-- dma_dz1&#45;&gt;hw_dz1 -->
<g id="edge10" class="edge">
<title>dma_dz1&#45;&gt;hw_dz1</title>
<path fill="none" stroke="#666666" d="M855,-159.37C855,-135.43 855,-92.04 855,-63.37"/>
<polygon fill="#666666" stroke="#666666" points="858.5,-63.59 855,-53.59 851.5,-63.59 858.5,-63.59"/>
</g>
<!-- dma_jenc -->
<g id="node10" class="node">
<title>dma_jenc</title>
<path fill="#ffffff" stroke="black" d="M1047.25,-195.75C1047.25,-195.75 954.75,-195.75 954.75,-195.75 948.75,-195.75 942.75,-189.75 942.75,-183.75 942.75,-183.75 942.75,-171.75 942.75,-171.75 942.75,-165.75 948.75,-159.75 954.75,-159.75 954.75,-159.75 1047.25,-159.75 1047.25,-159.75 1053.25,-159.75 1059.25,-165.75 1059.25,-171.75 1059.25,-171.75 1059.25,-183.75 1059.25,-183.75 1059.25,-189.75 1053.25,-195.75 1047.25,-195.75"/>
<text text-anchor="middle" x="1001" y="-181" font-family="Helvetica,sans-Serif" font-size="10.00">enx_vdma&#45;jenc.ko</text>
<text text-anchor="middle" x="1001" y="-168.25" font-family="Helvetica,sans-Serif" font-size="10.00">/dev/enx_vdma_jenc</text>
</g>
<!-- hw_jenc -->
<g id="node16" class="node">
<title>hw_jenc</title>
<path fill="#eeeeee" stroke="black" d="M969.38,-48.73C969.38,-50.53 956.21,-52 940,-52 923.79,-52 910.62,-50.53 910.62,-48.73 910.62,-48.73 910.62,-19.27 910.62,-19.27 910.62,-17.47 923.79,-16 940,-16 956.21,-16 969.38,-17.47 969.38,-19.27 969.38,-19.27 969.38,-48.73 969.38,-48.73"/>
<path fill="none" stroke="black" d="M969.38,-48.73C969.38,-46.92 956.21,-45.45 940,-45.45 923.79,-45.45 910.62,-46.92 910.62,-48.73"/>
<text text-anchor="middle" x="940" y="-30.88" font-family="Helvetica,sans-Serif" font-size="10.00">JPEG enc</text>
</g>
<!-- dma_jenc&#45;&gt;hw_jenc -->
<g id="edge11" class="edge">
<title>dma_jenc&#45;&gt;hw_jenc</title>
<path fill="none" stroke="#666666" d="M993.52,-159.37C983.13,-135.22 964.21,-91.27 951.88,-62.6"/>
<polygon fill="#666666" stroke="#666666" points="955.12,-61.27 947.95,-53.47 948.69,-64.04 955.12,-61.27"/>
</g>
<!-- dma_jdec -->
<g id="node11" class="node">
<title>dma_jdec</title>
<path fill="#ffffff" stroke="black" d="M1193.25,-195.75C1193.25,-195.75 1100.75,-195.75 1100.75,-195.75 1094.75,-195.75 1088.75,-189.75 1088.75,-183.75 1088.75,-183.75 1088.75,-171.75 1088.75,-171.75 1088.75,-165.75 1094.75,-159.75 1100.75,-159.75 1100.75,-159.75 1193.25,-159.75 1193.25,-159.75 1199.25,-159.75 1205.25,-165.75 1205.25,-171.75 1205.25,-171.75 1205.25,-183.75 1205.25,-183.75 1205.25,-189.75 1199.25,-195.75 1193.25,-195.75"/>
<text text-anchor="middle" x="1147" y="-181" font-family="Helvetica,sans-Serif" font-size="10.00">enx_vdma&#45;jdec.ko</text>
<text text-anchor="middle" x="1147" y="-168.25" font-family="Helvetica,sans-Serif" font-size="10.00">/dev/enx_vdma_jdec</text>
</g>
<!-- hw_jdec -->
<g id="node17" class="node">
<title>hw_jdec</title>
<path fill="#eeeeee" stroke="black" d="M1057.38,-48.73C1057.38,-50.53 1044.21,-52 1028,-52 1011.79,-52 998.62,-50.53 998.62,-48.73 998.62,-48.73 998.62,-19.27 998.62,-19.27 998.62,-17.47 1011.79,-16 1028,-16 1044.21,-16 1057.38,-17.47 1057.38,-19.27 1057.38,-19.27 1057.38,-48.73 1057.38,-48.73"/>
<path fill="none" stroke="black" d="M1057.38,-48.73C1057.38,-46.92 1044.21,-45.45 1028,-45.45 1011.79,-45.45 998.62,-46.92 998.62,-48.73"/>
<text text-anchor="middle" x="1028" y="-30.88" font-family="Helvetica,sans-Serif" font-size="10.00">JPEG dec</text>
</g>
<!-- dma_jdec&#45;&gt;hw_jdec -->
<g id="edge12" class="edge">
<title>dma_jdec&#45;&gt;hw_jdec</title>
<path fill="none" stroke="#666666" d="M1132.41,-159.37C1111.69,-134.69 1073.59,-89.31 1049.6,-60.72"/>
<polygon fill="#666666" stroke="#666666" points="1052.42,-58.65 1043.31,-53.24 1047.06,-63.15 1052.42,-58.65"/>
</g>
<!-- core -->
<g id="node12" class="node">
<title>core</title>
<polygon fill="lightgrey" stroke="none" points="414,-236.25 24,-236.25 24,-119.25 414,-119.25 414,-236.25"/>
<polygon fill="#ffffff" stroke="none" points="27,-179.25 27,-233.25 146,-233.25 146,-179.25 27,-179.25"/>
<polygon fill="none" stroke="black" points="27,-179.25 27,-233.25 146,-233.25 146,-179.25 27,-179.25"/>
<text text-anchor="start" x="44.88" y="-217.75" font-family="Helvetica,sans-Serif" font-weight="bold" font-size="10.00">Common ioctls</text>
<text text-anchor="start" x="34" y="-207.75" font-family="Helvetica,sans-Serif" font-size="10.00">ALLOC · FREE · MMAP</text>
<text text-anchor="start" x="44.12" y="-197.75" font-family="Helvetica,sans-Serif" font-size="10.00">EXPORT · IMPORT</text>
<text text-anchor="start" x="53.12" y="-187.75" font-family="Helvetica,sans-Serif" font-size="10.00">WAIT · ABORT</text>
<polygon fill="#ffffff" stroke="none" points="149,-179.25 149,-233.25 271,-233.25 271,-179.25 149,-179.25"/>
<polygon fill="none" stroke="black" points="149,-179.25 149,-233.25 271,-233.25 271,-179.25 149,-179.25"/>
<text text-anchor="start" x="156" y="-212.75" font-family="Helvetica,sans-Serif" font-weight="bold" font-size="10.00">SUBMIT dispatcher</text>
<text text-anchor="start" x="177" y="-202.75" font-family="Helvetica,sans-Serif" font-size="10.00">SYNC &#160;&#45; inline</text>
<text text-anchor="start" x="161.62" y="-192.75" font-family="Helvetica,sans-Serif" font-size="10.00">ASYNC &#45; workqueue</text>
<polygon fill="#fff9c4" stroke="none" points="274,-122.25 274,-233.25 411,-233.25 411,-122.25 274,-122.25"/>
<polygon fill="none" stroke="black" points="274,-122.25 274,-233.25 411,-233.25 411,-122.25 274,-122.25"/>
<text text-anchor="start" x="281" y="-214.25" font-family="Helvetica,sans-Serif" font-weight="bold" font-size="10.00">EXPORT_SYMBOL_GPL</text>
<text text-anchor="start" x="315.5" y="-204.25" font-family="Helvetica,sans-Serif" font-weight="bold" font-size="10.00">boundary</text>
<text text-anchor="start" x="297.5" y="-184.25" font-family="Helvetica,sans-Serif" font-size="10.00">enx_vdma_submit</text>
<text text-anchor="start" x="301.62" y="-174.25" font-family="Helvetica,sans-Serif" font-size="10.00">enx_vdma_abort</text>
<text text-anchor="start" x="282.88" y="-164.25" font-family="Helvetica,sans-Serif" font-size="10.00">enx_vdma_open/release</text>
<text text-anchor="start" x="288.12" y="-154.25" font-family="Helvetica,sans-Serif" font-size="10.00">enx_vdma_mmap/poll</text>
<text text-anchor="start" x="312.5" y="-144.25" font-family="Helvetica,sans-Serif" font-size="10.00">ioctl helpers</text>
<text text-anchor="start" x="310.62" y="-134.25" font-family="Helvetica,sans-Serif" font-size="10.00">core_register</text>
<polygon fill="#ffffff" stroke="none" points="27,-122.25 27,-176.25 146,-176.25 146,-122.25 27,-122.25"/>
<polygon fill="none" stroke="black" points="27,-122.25 27,-176.25 146,-176.25 146,-122.25 27,-122.25"/>
<text text-anchor="start" x="44.12" y="-160.75" font-family="Helvetica,sans-Serif" font-weight="bold" font-size="10.00">Memory model</text>
<text text-anchor="start" x="52.38" y="-150.75" font-family="Helvetica,sans-Serif" font-size="10.00">backing + buf</text>
<text text-anchor="start" x="68.5" y="-140.75" font-family="Helvetica,sans-Serif" font-size="10.00">(kref&#39;d)</text>
<text text-anchor="start" x="40.75" y="-130.75" font-family="Helvetica,sans-Serif" font-size="10.00">cross&#45;device share</text>
<polygon fill="#ffffff" stroke="none" points="149,-122.25 149,-176.25 271,-176.25 271,-122.25 149,-122.25"/>
<polygon fill="none" stroke="black" points="149,-122.25 149,-176.25 271,-176.25 271,-122.25 149,-122.25"/>
<text text-anchor="start" x="186.75" y="-155.75" font-family="Helvetica,sans-Serif" font-weight="bold" font-size="10.00">debugfs</text>
<text text-anchor="start" x="183" y="-145.75" font-family="Helvetica,sans-Serif" font-size="10.00">stats · bufs</text>
<text text-anchor="start" x="174.38" y="-135.75" font-family="Helvetica,sans-Serif" font-size="10.00">jobs · sessions</text>
</g>
<!-- core&#45;&gt;dma_font -->
<g id="edge6" class="edge">
<title>core:ops&#45;&gt;dma_font</title>
<path fill="none" stroke="black" stroke-dasharray="5,2" d="M422,-187.74C423.28,-190.17 425,-192.44 428.19,-193.75 454.4,-204.52 463.78,-196.88 491.94,-193.75 493.63,-193.56 495.35,-193.35 497.08,-193.11"/>
<ellipse fill="none" stroke="black" cx="501.34" cy="-192.46" rx="4" ry="4"/>
<text text-anchor="middle" x="460.06" y="-214.75" font-family="Helvetica,sans-Serif" font-size="10.00">core_register</text>
<text text-anchor="middle" x="460.06" y="-202" font-family="Helvetica,sans-Serif" font-size="10.00">&amp; ops</text>
</g>
</g>
</svg>
