<?xml version="1.0" encoding="UTF-8" standalone="no"?>
<!DOCTYPE svg PUBLIC "-//W3C//DTD SVG 1.1//EN"
 "http://www.w3.org/Graphics/SVG/1.1/DTD/svg11.dtd">
<!-- Generated by graphviz version 9.0.0 (20230911.1827)
 -->
<!-- Title: BUF_LIFECYCLE Pages: 1 -->
<svg width="538pt" height="839pt"
 viewBox="0.00 0.00 538.25 839.05" xmlns="http://www.w3.org/2000/svg" xmlns:xlink="http://www.w3.org/1999/xlink">
<g id="graph0" class="graph" transform="scale(1 1) rotate(0) translate(4 835.05)">
<title>BUF_LIFECYCLE</title>
<polygon fill="white" stroke="none" points="-4,4 -4,-835.05 534.25,-835.05 534.25,4 -4,4"/>
<g id="clust1" class="cluster">
<title>cluster_legend</title>
<path fill="#fafafa" stroke="#9e9e9e" d="M336.5,-590.05C336.5,-590.05 398.5,-590.05 398.5,-590.05 404.5,-590.05 410.5,-596.05 410.5,-602.05 410.5,-602.05 410.5,-811.05 410.5,-811.05 410.5,-817.05 404.5,-823.05 398.5,-823.05 398.5,-823.05 336.5,-823.05 336.5,-823.05 330.5,-823.05 324.5,-817.05 324.5,-811.05 324.5,-811.05 324.5,-602.05 324.5,-602.05 324.5,-596.05 330.5,-590.05 336.5,-590.05"/>
<text text-anchor="start" x="338.62" y="-806.75" font-family="Helvetica,sans-Serif" font-weight="bold" font-size="14.00">Legend</text>
</g>
<!-- start -->
<g id="node1" class="node">
<title>start</title>
<ellipse fill="black" stroke="black" cx="217.5" cy="-771.8" rx="14.4" ry="14.4"/>
<text text-anchor="middle" x="217.5" y="-768.67" font-family="Helvetica,sans-Serif" font-size="10.00" fill="white">●</text>
</g>
<!-- not_exists -->
<g id="node3" class="node">
<title>not_exists</title>
<ellipse fill="#eceff1" stroke="black" cx="217.5" cy="-698.8" rx="42.37" ry="18"/>
<text text-anchor="start" x="190.88" y="-696.67" font-family="Helvetica,sans-Serif" font-weight="bold" font-size="10.00">NotExists</text>
</g>
<!-- start&#45;&gt;not_exists -->
<g id="edge1" class="edge">
<title>start&#45;&gt;not_exists</title>
<path fill="none" stroke="black" d="M217.5,-757.11C217.5,-749.03 217.5,-738.49 217.5,-728.66"/>
<polygon fill="black" stroke="black" points="221,-728.74 217.5,-718.74 214,-728.74 221,-728.74"/>
</g>
<!-- end -->
<g id="node2" class="node">
<title>end</title>
<ellipse fill="black" stroke="black" cx="475.5" cy="-18.4" rx="14.4" ry="14.4"/>
<ellipse fill="none" stroke="black" cx="475.5" cy="-18.4" rx="18.4" ry="18.4"/>
<text text-anchor="middle" x="475.5" y="-15.27" font-family="Helvetica,sans-Serif" font-size="10.00" fill="white">◉</text>
</g>
<!-- allocated -->
<g id="node4" class="node">
<title>allocated</title>
<path fill="#c8e6c9" stroke="black" d="M199,-635.05C199,-635.05 138,-635.05 138,-635.05 132,-635.05 126,-629.05 126,-623.05 126,-623.05 126,-609.05 126,-609.05 126,-603.05 132,-597.05 138,-597.05 138,-597.05 199,-597.05 199,-597.05 205,-597.05 211,-603.05 211,-609.05 211,-609.05 211,-623.05 211,-623.05 211,-629.05 205,-635.05 199,-635.05"/>
<text text-anchor="start" x="141.88" y="-622.55" font-family="Helvetica,sans-Serif" font-weight="bold" font-size="10.00">Allocated</text>
<text text-anchor="start" x="134" y="-612.55" font-family="Helvetica,sans-Serif" font-size="10.00">backing.ref=1</text>
<text text-anchor="start" x="145.62" y="-602.55" font-family="Helvetica,sans-Serif" font-size="10.00">buf.ref=1</text>
</g>
<!-- not_exists&#45;&gt;allocated -->
<g id="edge2" class="edge">
<title>not_exists&#45;&gt;allocated</title>
<path fill="none" stroke="#1b5e20" stroke-width="1.5" d="M204.46,-681.48C200.11,-675.72 195.39,-669.11 191.5,-662.8 188.2,-657.45 184.97,-651.57 182.02,-645.85"/>
<polygon fill="#1b5e20" stroke="#1b5e20" stroke-width="1.5" points="185.35,-644.69 177.77,-637.29 179.08,-647.8 185.35,-644.69"/>
<text text-anchor="start" x="191.5" y="-655.2" font-family="Helvetica,sans-Serif" font-size="8.00">ALLOC ioctl</text>
</g>
<!-- imported -->
<g id="node5" class="node">
<title>imported</title>
<path fill="#c8e6c9" stroke="black" d="M304.12,-635.05C304.12,-635.05 240.88,-635.05 240.88,-635.05 234.88,-635.05 228.88,-629.05 228.88,-623.05 228.88,-623.05 228.88,-609.05 228.88,-609.05 228.88,-603.05 234.88,-597.05 240.88,-597.05 240.88,-597.05 304.12,-597.05 304.12,-597.05 310.12,-597.05 316.12,-603.05 316.12,-609.05 316.12,-609.05 316.12,-623.05 316.12,-623.05 316.12,-629.05 310.12,-635.05 304.12,-635.05"/>
<text text-anchor="start" x="246.25" y="-622.55" font-family="Helvetica,sans-Serif" font-weight="bold" font-size="10.00">Imported</text>
<text text-anchor="start" x="236.88" y="-612.55" font-family="Helvetica,sans-Serif" font-size="10.00">backing.ref++</text>
<text text-anchor="start" x="249.62" y="-602.55" font-family="Helvetica,sans-Serif" font-size="10.00">buf.ref=1</text>
</g>
<!-- not_exists&#45;&gt;imported -->
<g id="edge3" class="edge">
<title>not_exists&#45;&gt;imported</title>
<path fill="none" stroke="#1b5e20" stroke-width="1.5" d="M228.9,-681.07C235.9,-670.78 245.07,-657.32 253.19,-645.41"/>
<polygon fill="#1b5e20" stroke="#1b5e20" stroke-width="1.5" points="255.95,-647.56 258.69,-637.33 250.17,-643.62 255.95,-647.56"/>
<text text-anchor="start" x="247.5" y="-655.2" font-family="Helvetica,sans-Serif" font-size="8.00">IMPORT ioctl</text>
</g>
<!-- mmapped -->
<g id="node6" class="node">
<title>mmapped</title>
<path fill="#a5d6a7" stroke="black" d="M306.38,-541.55C306.38,-541.55 238.62,-541.55 238.62,-541.55 232.62,-541.55 226.62,-535.55 226.62,-529.55 226.62,-529.55 226.62,-517.55 226.62,-517.55 226.62,-511.55 232.62,-505.55 238.62,-505.55 238.62,-505.55 306.38,-505.55 306.38,-505.55 312.38,-505.55 318.38,-511.55 318.38,-517.55 318.38,-517.55 318.38,-529.55 318.38,-529.55 318.38,-535.55 312.38,-541.55 306.38,-541.55"/>
<text text-anchor="start" x="244.38" y="-525.05" font-family="Helvetica,sans-Serif" font-weight="bold" font-size="10.00">Mmapped</text>
<text text-anchor="start" x="234.62" y="-515.05" font-family="Helvetica,sans-Serif" font-size="10.00">buf.ref += vma</text>
</g>
<!-- allocated&#45;&gt;mmapped -->
<g id="edge4" class="edge">
<title>allocated&#45;&gt;mmapped</title>
<path fill="none" stroke="black" d="M187.73,-596.7C199.41,-585.72 214.72,-571.6 228.75,-559.55 232.87,-556.01 237.27,-552.35 241.64,-548.8"/>
<polygon fill="black" stroke="black" points="243.67,-551.65 249.27,-542.65 239.28,-546.2 243.67,-551.65"/>
<text text-anchor="start" x="233.62" y="-571.45" font-family="Helvetica,sans-Serif" font-size="8.00">mmap()</text>
<text text-anchor="start" x="229.5" y="-561.7" font-family="Helvetica,sans-Serif" font-size="8.00">buf.ref++</text>
</g>
<!-- exported -->
<g id="node8" class="node">
<title>exported</title>
<path fill="#fff59d" stroke="black" d="M178.75,-450.05C178.75,-450.05 110.25,-450.05 110.25,-450.05 104.25,-450.05 98.25,-444.05 98.25,-438.05 98.25,-438.05 98.25,-424.05 98.25,-424.05 98.25,-418.05 104.25,-412.05 110.25,-412.05 110.25,-412.05 178.75,-412.05 178.75,-412.05 184.75,-412.05 190.75,-418.05 190.75,-424.05 190.75,-424.05 190.75,-438.05 190.75,-438.05 190.75,-444.05 184.75,-450.05 178.75,-450.05"/>
<text text-anchor="start" x="118.62" y="-437.55" font-family="Helvetica,sans-Serif" font-weight="bold" font-size="10.00">Exported</text>
<text text-anchor="start" x="108.88" y="-427.55" font-family="Helvetica,sans-Serif" font-size="10.00">backing.ref++</text>
<text text-anchor="start" x="106.25" y="-417.55" font-family="Helvetica,sans-Serif" font-size="10.00">(anon_inode fd)</text>
</g>
<!-- allocated&#45;&gt;exported -->
<g id="edge8" class="edge">
<title>allocated&#45;&gt;exported</title>
<path fill="none" stroke="#f57f17" d="M163.91,-596.62C158.03,-571.97 148.16,-526.8 144.5,-487.55 143.71,-479.07 143.46,-469.84 143.48,-461.37"/>
<polygon fill="#f57f17" stroke="#f57f17" points="146.98,-461.65 143.63,-451.6 139.98,-461.54 146.98,-461.65"/>
<text text-anchor="start" x="166.38" y="-532.07" font-family="Helvetica,sans-Serif" font-size="8.00">EXPORT</text>
<text text-anchor="start" x="152.5" y="-519.32" font-family="Helvetica,sans-Serif" font-size="8.00">(mmap 전 가능)</text>
<text text-anchor="start" x="152.5" y="-509.57" font-family="Helvetica,sans-Serif" font-size="8.00">backing.ref++</text>
</g>
<!-- imported&#45;&gt;mmapped -->
<g id="edge5" class="edge">
<title>imported&#45;&gt;mmapped</title>
<path fill="none" stroke="black" d="M272.5,-596.74C272.5,-584.23 272.5,-567.4 272.5,-553.14"/>
<polygon fill="black" stroke="black" points="276,-553.43 272.5,-543.43 269,-553.43 276,-553.43"/>
<text text-anchor="start" x="276.62" y="-571.45" font-family="Helvetica,sans-Serif" font-size="8.00">mmap()</text>
<text text-anchor="start" x="272.5" y="-561.7" font-family="Helvetica,sans-Serif" font-size="8.00">buf.ref++</text>
</g>
<!-- submitted -->
<g id="node7" class="node">
<title>submitted</title>
<path fill="#81c784" stroke="black" d="M303,-450.05C303,-450.05 242,-450.05 242,-450.05 236,-450.05 230,-444.05 230,-438.05 230,-438.05 230,-424.05 230,-424.05 230,-418.05 236,-412.05 242,-412.05 242,-412.05 303,-412.05 303,-412.05 309,-412.05 315,-418.05 315,-424.05 315,-424.05 315,-438.05 315,-438.05 315,-444.05 309,-450.05 303,-450.05"/>
<text text-anchor="start" x="242.88" y="-437.55" font-family="Helvetica,sans-Serif" font-weight="bold" font-size="10.00">Submitted</text>
<text text-anchor="start" x="238" y="-427.55" font-family="Helvetica,sans-Serif" font-size="10.00">buf.ref += job</text>
<text text-anchor="start" x="247" y="-417.55" font-family="Helvetica,sans-Serif" font-size="10.00">(transient)</text>
</g>
<!-- mmapped&#45;&gt;submitted -->
<g id="edge6" class="edge">
<title>mmapped&#45;&gt;submitted</title>
<path fill="none" stroke="#33691e" d="M282.18,-505.26C284.76,-499.77 287.19,-493.56 288.5,-487.55 290.34,-479.08 290.3,-476.53 288.5,-468.05 287.98,-465.6 287.28,-463.12 286.47,-460.66"/>
<polygon fill="#33691e" stroke="#33691e" points="289.83,-459.65 282.9,-451.64 283.32,-462.23 289.83,-459.65"/>
<text text-anchor="start" x="295" y="-479.95" font-family="Helvetica,sans-Serif" font-size="8.00">SUBMIT</text>
<text text-anchor="start" x="290.5" y="-470.2" font-family="Helvetica,sans-Serif" font-size="8.00">buf.ref++</text>
</g>
<!-- mmapped&#45;&gt;exported -->
<g id="edge9" class="edge">
<title>mmapped&#45;&gt;exported</title>
<path fill="none" stroke="#f57f17" d="M226.24,-519.03C202.86,-514.88 175.8,-506.08 158.25,-487.55 151.67,-480.61 148.1,-471.03 146.2,-461.79"/>
<polygon fill="#f57f17" stroke="#f57f17" points="149.68,-461.38 144.8,-451.98 142.75,-462.37 149.68,-461.38"/>
<text text-anchor="start" x="172.38" y="-479.95" font-family="Helvetica,sans-Serif" font-size="8.00">EXPORT</text>
<text text-anchor="start" x="158.5" y="-470.2" font-family="Helvetica,sans-Serif" font-size="8.00">backing.ref++</text>
</g>
<!-- orphaned -->
<g id="node10" class="node">
<title>orphaned</title>
<path fill="#ffccbc" stroke="black" d="M402.5,-233.8C402.5,-233.8 326.5,-233.8 326.5,-233.8 320.5,-233.8 314.5,-227.8 314.5,-221.8 314.5,-221.8 314.5,-207.8 314.5,-207.8 314.5,-201.8 320.5,-195.8 326.5,-195.8 326.5,-195.8 402.5,-195.8 402.5,-195.8 408.5,-195.8 414.5,-201.8 414.5,-207.8 414.5,-207.8 414.5,-221.8 414.5,-221.8 414.5,-227.8 408.5,-233.8 402.5,-233.8"/>
<text text-anchor="start" x="336.75" y="-221.3" font-family="Helvetica,sans-Serif" font-weight="bold" font-size="10.00">Orphaned</text>
<text text-anchor="start" x="332.62" y="-211.3" font-family="Helvetica,sans-Serif" font-size="10.00">owner=NULL</text>
<text text-anchor="start" x="322.5" y="-201.3" font-family="Helvetica,sans-Serif" font-size="10.00">다른 holder 가 유지</text>
</g>
<!-- mmapped&#45;&gt;orphaned -->
<g id="edge11" class="edge">
<title>mmapped&#45;&gt;orphaned</title>
<path fill="none" stroke="#bf360c" stroke-dasharray="5,2" d="M315.89,-505.2C323.13,-500.49 329.8,-494.67 334.5,-487.55 360.36,-448.37 364.17,-307.48 364.56,-245.46"/>
<polygon fill="#bf360c" stroke="#bf360c" points="368.06,-245.69 364.6,-235.68 361.06,-245.67 368.06,-245.69"/>
<text text-anchor="start" x="383.88" y="-386.45" font-family="Helvetica,sans-Serif" font-size="8.00">FREE (user)</text>
<text text-anchor="start" x="380.88" y="-373.7" font-family="Helvetica,sans-Serif" font-size="8.00">다른 view 또는</text>
<text text-anchor="start" x="359.5" y="-360.95" font-family="Helvetica,sans-Serif" font-size="8.00">anon_fd 가 backing 잡음</text>
</g>
<!-- released -->
<g id="node11" class="node">
<title>released</title>
<path fill="#ef9a9a" stroke="black" d="M506,-119.3C506,-119.3 445,-119.3 445,-119.3 439,-119.3 433,-113.3 433,-107.3 433,-107.3 433,-93.3 433,-93.3 433,-87.3 439,-81.3 445,-81.3 445,-81.3 506,-81.3 506,-81.3 512,-81.3 518,-87.3 518,-93.3 518,-93.3 518,-107.3 518,-107.3 518,-113.3 512,-119.3 506,-119.3"/>
<text text-anchor="start" x="449.62" y="-106.8" font-family="Helvetica,sans-Serif" font-weight="bold" font-size="10.00">Released</text>
<text text-anchor="start" x="441" y="-96.8" font-family="Helvetica,sans-Serif" font-size="10.00">backing.ref=0</text>
<text text-anchor="start" x="447.75" y="-86.8" font-family="Helvetica,sans-Serif" font-size="10.00">ecmm_free</text>
</g>
<!-- mmapped&#45;&gt;released -->
<g id="edge13" class="edge">
<title>mmapped&#45;&gt;released</title>
<path fill="none" stroke="#b71c1c" d="M318.82,-521.51C378.73,-517.42 475.5,-500.25 475.5,-432.05 475.5,-432.05 475.5,-432.05 475.5,-213.8 475.5,-185.66 475.5,-153.55 475.5,-130.86"/>
<polygon fill="#b71c1c" stroke="#b71c1c" points="479,-131.13 475.5,-121.13 472,-131.13 479,-131.13"/>
<text text-anchor="start" x="487.88" y="-326.95" font-family="Helvetica,sans-Serif" font-size="8.00">FREE 후</text>
<text text-anchor="start" x="475.5" y="-314.2" font-family="Helvetica,sans-Serif" font-size="8.00">모든 holder=0</text>
</g>
<!-- submitted&#45;&gt;mmapped -->
<g id="edge7" class="edge">
<title>submitted&#45;&gt;mmapped</title>
<path fill="none" stroke="#33691e" d="M238.93,-450.23C232.81,-455.16 227.26,-461.1 223.75,-468.05 219.85,-475.79 219.79,-479.84 223.75,-487.55 225.67,-491.29 228.2,-494.73 231.09,-497.85"/>
<polygon fill="#33691e" stroke="#33691e" points="228.57,-500.29 238.33,-504.41 233.27,-495.1 228.57,-500.29"/>
<text text-anchor="start" x="236.88" y="-479.95" font-family="Helvetica,sans-Serif" font-size="8.00">job done</text>
<text text-anchor="start" x="224.5" y="-470.2" font-family="Helvetica,sans-Serif" font-size="8.00">buf.ref minus 1</text>
</g>
<!-- shared -->
<g id="node9" class="node">
<title>shared</title>
<path fill="#ffe082" stroke="black" d="M204.62,-340.8C204.62,-340.8 90.38,-340.8 90.38,-340.8 84.38,-340.8 78.38,-334.8 78.38,-328.8 78.38,-328.8 78.38,-314.8 78.38,-314.8 78.38,-308.8 84.38,-302.8 90.38,-302.8 90.38,-302.8 204.62,-302.8 204.62,-302.8 210.62,-302.8 216.62,-308.8 216.62,-314.8 216.62,-314.8 216.62,-328.8 216.62,-328.8 216.62,-334.8 210.62,-340.8 204.62,-340.8"/>
<text text-anchor="start" x="86.38" y="-328.3" font-family="Helvetica,sans-Serif" font-weight="bold" font-size="10.00">SharedAcrossProcess</text>
<text text-anchor="start" x="92.38" y="-318.3" font-family="Helvetica,sans-Serif" font-size="10.00">다른 process 가 IMPORT</text>
<text text-anchor="start" x="111.88" y="-308.3" font-family="Helvetica,sans-Serif" font-size="10.00">backing.ref++</text>
</g>
<!-- exported&#45;&gt;shared -->
<g id="edge10" class="edge">
<title>exported&#45;&gt;shared</title>
<path fill="none" stroke="#ef6c00" stroke-width="2" d="M145.01,-411.86C145.45,-396.06 146.1,-372.85 146.62,-354.08"/>
<polygon fill="#ef6c00" stroke="#ef6c00" stroke-width="2" points="150.12,-354.2 146.9,-344.11 143.13,-354.01 150.12,-354.2"/>
<text text-anchor="start" x="146.5" y="-384.95" font-family="Helvetica,sans-Serif" font-size="8.00">SCM_RIGHTS + IMPORT</text>
<text text-anchor="start" x="170.88" y="-372.2" font-family="Helvetica,sans-Serif" font-size="8.00">새 buf view</text>
<text text-anchor="start" x="163" y="-362.45" font-family="Helvetica,sans-Serif" font-size="8.00">backing.ref++</text>
</g>
<!-- shared&#45;&gt;orphaned -->
<g id="edge12" class="edge">
<title>shared&#45;&gt;orphaned</title>
<path fill="none" stroke="#bf360c" stroke-dasharray="5,2" d="M185.3,-302.51C221.64,-284.93 276.72,-258.28 316.22,-239.16"/>
<polygon fill="#bf360c" stroke="#bf360c" points="317.57,-242.4 325.04,-234.89 314.52,-236.1 317.57,-242.4"/>
<text text-anchor="start" x="269.5" y="-277.2" font-family="Helvetica,sans-Serif" font-size="8.00">한쪽 view 가</text>
<text text-anchor="start" x="275.88" y="-264.45" font-family="Helvetica,sans-Serif" font-size="8.00">먼저 free</text>
</g>
<!-- note_shared -->
<g id="node12" class="node">
<title>note_shared</title>
<polygon fill="#fffde7" stroke="#f57f17" points="289,-241.3 0,-241.3 0,-188.3 295,-188.3 295,-235.3 289,-241.3"/>
<polyline fill="none" stroke="#f57f17" points="289,-241.3 289,-235.3"/>
<polyline fill="none" stroke="#f57f17" points="295,-235.3 289,-235.3"/>
<text text-anchor="start" x="93.12" y="-229.75" font-family="Helvetica,sans-Serif" font-weight="bold" font-size="9.00">SharedAcrossProcess</text>
<text text-anchor="start" x="8" y="-220.75" font-family="Helvetica,sans-Serif" font-size="9.00"> &#160;&#160;&#160;&#160;&#160;&#160;&#160;&#160;&#160;&#160;&#160;&#160;&#160;&#160;• 한 backing 을 여러 view 가 공유 </text>
<text text-anchor="start" x="8" y="-211.75" font-family="Helvetica,sans-Serif" font-size="9.00"> &#160;&#160;&#160;&#160;&#160;&#160;&#160;&#160;&#160;&#160;&#160;&#160;&#160;&#160;• 각 view 는 자기 session 의 bufs list 에 등록 </text>
<text text-anchor="start" x="8" y="-202.75" font-family="Helvetica,sans-Serif" font-size="9.00"> &#160;&#160;&#160;&#160;&#160;&#160;&#160;&#160;&#160;&#160;&#160;&#160;&#160;&#160;• Per&#45;session dedup : 같은 process 가 같은 backing 을 </text>
<text text-anchor="start" x="8" y="-193.75" font-family="Helvetica,sans-Serif" font-size="9.00"> &#160;&#160;&#160;&#160;&#160;&#160;&#160;&#160;&#160;&#160;&#160;&#160;&#160;&#160;&#160;&#160;두 번 import 시 기존 view 반환 (idempotent) </text>
</g>
<!-- shared&#45;&gt;note_shared -->
<!-- orphaned&#45;&gt;released -->
<g id="edge14" class="edge">
<title>orphaned&#45;&gt;released</title>
<path fill="none" stroke="#b71c1c" d="M373.64,-195.31C381.58,-180.49 394.13,-159.77 409,-144.8 415.85,-137.91 423.96,-131.51 432.13,-125.87"/>
<polygon fill="#b71c1c" stroke="#b71c1c" points="433.97,-128.85 440.4,-120.43 430.12,-123 433.97,-128.85"/>
<text text-anchor="start" x="408.5" y="-162.7" font-family="Helvetica,sans-Serif" font-size="8.00">마지막 view 와</text>
<text text-anchor="start" x="409.62" y="-149.95" font-family="Helvetica,sans-Serif" font-size="8.00">anon_fd 해제</text>
</g>
<!-- note_orphan -->
<g id="node13" class="node">
<title>note_orphan</title>
<polygon fill="#fffde7" stroke="#bf360c" points="409.38,-126.8 197.62,-126.8 197.62,-73.8 415.38,-73.8 415.38,-120.8 409.38,-126.8"/>
<polyline fill="none" stroke="#bf360c" points="409.38,-126.8 409.38,-120.8"/>
<polyline fill="none" stroke="#bf360c" points="415.38,-120.8 409.38,-120.8"/>
<text text-anchor="start" x="281" y="-115.25" font-family="Helvetica,sans-Serif" font-weight="bold" font-size="9.00">Orphaned</text>
<text text-anchor="start" x="205.62" y="-106.25" font-family="Helvetica,sans-Serif" font-size="9.00"> &#160;&#160;&#160;&#160;&#160;&#160;&#160;&#160;&#160;&#160;&#160;&#160;&#160;&#160;• owner = NULL 상태 </text>
<text text-anchor="start" x="205.62" y="-97.25" font-family="Helvetica,sans-Serif" font-size="9.00"> &#160;&#160;&#160;&#160;&#160;&#160;&#160;&#160;&#160;&#160;&#160;&#160;&#160;&#160;• VMA / job / anon_fd / 다른 view 중 </text>
<text text-anchor="start" x="205.62" y="-88.25" font-family="Helvetica,sans-Serif" font-size="9.00"> &#160;&#160;&#160;&#160;&#160;&#160;&#160;&#160;&#160;&#160;&#160;&#160;&#160;&#160;&#160;&#160;하나라도 살아있으면 backing 보존 </text>
<text text-anchor="start" x="205.62" y="-79.25" font-family="Helvetica,sans-Serif" font-size="9.00"> &#160;&#160;&#160;&#160;&#160;&#160;&#160;&#160;&#160;&#160;&#160;&#160;&#160;&#160;• 사용자 측에선 free 성공한 것으로 보임 </text>
</g>
<!-- orphaned&#45;&gt;note_orphan -->
<!-- released&#45;&gt;end -->
<g id="edge15" class="edge">
<title>released&#45;&gt;end</title>
<path fill="none" stroke="black" d="M475.5,-81.17C475.5,-71.5 475.5,-59.37 475.5,-48.42"/>
<polygon fill="black" stroke="black" points="479,-48.7 475.5,-38.7 472,-48.7 479,-48.7"/>
</g>
<!-- L1 -->
<g id="node14" class="node">
<title>L1</title>
<path fill="#c8e6c9" stroke="black" d="M390.12,-789.8C390.12,-789.8 344.88,-789.8 344.88,-789.8 338.88,-789.8 332.88,-783.8 332.88,-777.8 332.88,-777.8 332.88,-765.8 332.88,-765.8 332.88,-759.8 338.88,-753.8 344.88,-753.8 344.88,-753.8 390.12,-753.8 390.12,-753.8 396.12,-753.8 402.12,-759.8 402.12,-765.8 402.12,-765.8 402.12,-777.8 402.12,-777.8 402.12,-783.8 396.12,-789.8 390.12,-789.8"/>
<text text-anchor="start" x="340.88" y="-769.67" font-family="Helvetica,sans-Serif" font-weight="bold" font-size="10.00">Allocated</text>
</g>
<!-- L2 -->
<g id="node15" class="node">
<title>L2</title>
<path fill="#fff59d" stroke="black" d="M382.5,-716.8C382.5,-716.8 352.5,-716.8 352.5,-716.8 346.5,-716.8 340.5,-710.8 340.5,-704.8 340.5,-704.8 340.5,-692.8 340.5,-692.8 340.5,-686.8 346.5,-680.8 352.5,-680.8 352.5,-680.8 382.5,-680.8 382.5,-680.8 388.5,-680.8 394.5,-686.8 394.5,-692.8 394.5,-692.8 394.5,-704.8 394.5,-704.8 394.5,-710.8 388.5,-716.8 382.5,-716.8"/>
<text text-anchor="start" x="349.88" y="-696.67" font-family="Helvetica,sans-Serif" font-weight="bold" font-size="10.00">Active</text>
</g>
<!-- L1&#45;&gt;L2 -->
<!-- L3 -->
<g id="node16" class="node">
<title>L3</title>
<path fill="#ffccbc" stroke="black" d="M382.5,-634.05C382.5,-634.05 352.5,-634.05 352.5,-634.05 346.5,-634.05 340.5,-628.05 340.5,-622.05 340.5,-622.05 340.5,-610.05 340.5,-610.05 340.5,-604.05 346.5,-598.05 352.5,-598.05 352.5,-598.05 382.5,-598.05 382.5,-598.05 388.5,-598.05 394.5,-604.05 394.5,-610.05 394.5,-610.05 394.5,-622.05 394.5,-622.05 394.5,-628.05 388.5,-634.05 382.5,-634.05"/>
<text text-anchor="start" x="351" y="-613.92" font-family="Helvetica,sans-Serif" font-weight="bold" font-size="10.00">Death</text>
</g>
<!-- L2&#45;&gt;L3 -->
</g>
</svg>
