<?xml version="1.0" encoding="UTF-8" standalone="no"?>
<!DOCTYPE svg PUBLIC "-//W3C//DTD SVG 1.1//EN"
 "http://www.w3.org/Graphics/SVG/1.1/DTD/svg11.dtd">
<!-- Generated by graphviz version 9.0.0 (20230911.1827)
 -->
<!-- Title: EXPORT_IMPORT_FLOW Pages: 1 -->
<svg width="1729pt" height="483pt"
 viewBox="0.00 0.00 1728.62 482.75" xmlns="http://www.w3.org/2000/svg" xmlns:xlink="http://www.w3.org/1999/xlink">
<g id="graph0" class="graph" transform="scale(1 1) rotate(0) translate(4 478.75)">
<title>EXPORT_IMPORT_FLOW</title>
<polygon fill="white" stroke="none" points="-4,4 -4,-478.75 1724.62,-478.75 1724.62,4 -4,4"/>
<g id="clust1" class="cluster">
<title>cluster_producer</title>
<path fill="#e3f2fd" stroke="#1565c0" d="M580,-198.75C580,-198.75 845,-198.75 845,-198.75 851,-198.75 857,-204.75 857,-210.75 857,-210.75 857,-454.75 857,-454.75 857,-460.75 851,-466.75 845,-466.75 845,-466.75 580,-466.75 580,-466.75 574,-466.75 568,-460.75 568,-454.75 568,-454.75 568,-210.75 568,-210.75 568,-204.75 574,-198.75 580,-198.75"/>
<text text-anchor="start" x="629.62" y="-450.45" font-family="Helvetica,sans-Serif" font-weight="bold" font-size="14.00">Producer (Process A)</text>
</g>
<g id="clust2" class="cluster">
<title>cluster_kernel</title>
<path fill="#fff9c4" stroke="#f57f17" d="M270,-8C270,-8 548,-8 548,-8 554,-8 560,-14 560,-20 560,-20 560,-290.25 560,-290.25 560,-296.25 554,-302.25 548,-302.25 548,-302.25 270,-302.25 270,-302.25 264,-302.25 258,-296.25 258,-290.25 258,-290.25 258,-20 258,-20 258,-14 264,-8 270,-8"/>
<text text-anchor="start" x="383.5" y="-285.95" font-family="Helvetica,sans-Serif" font-weight="bold" font-size="14.00">Kernel</text>
</g>
<g id="clust3" class="cluster">
<title>cluster_consumer</title>
<path fill="#e8f5e9" stroke="#2e7d32" d="M20,-108.5C20,-108.5 185,-108.5 185,-108.5 191,-108.5 197,-114.5 197,-120.5 197,-120.5 197,-295.25 197,-295.25 197,-301.25 191,-307.25 185,-307.25 185,-307.25 20,-307.25 20,-307.25 14,-307.25 8,-301.25 8,-295.25 8,-295.25 8,-120.5 8,-120.5 8,-114.5 14,-108.5 20,-108.5"/>
<text text-anchor="start" x="15.88" y="-290.95" font-family="Helvetica,sans-Serif" font-weight="bold" font-size="14.00">Consumer (Process B)</text>
</g>
<g id="clust4" class="cluster">
<title>cluster_legend</title>
<path fill="#fafafa" stroke="#9e9e9e" d="M989,-16.12C989,-16.12 1181,-16.12 1181,-16.12 1187,-16.12 1193,-22.12 1193,-28.12 1193,-28.12 1193,-453.75 1193,-453.75 1193,-459.75 1187,-465.75 1181,-465.75 1181,-465.75 989,-465.75 989,-465.75 983,-465.75 977,-459.75 977,-453.75 977,-453.75 977,-28.12 977,-28.12 977,-22.13 983,-16.12 989,-16.12"/>
<text text-anchor="start" x="1056.12" y="-449.45" font-family="Helvetica,sans-Serif" font-weight="bold" font-size="14.00">Legend</text>
</g>
<!-- p_app -->
<g id="node1" class="node">
<title>p_app</title>
<path fill="#bbdefb" stroke="black" d="M630.12,-407.25C630.12,-407.25 587.88,-407.25 587.88,-407.25 581.88,-407.25 575.88,-401.25 575.88,-395.25 575.88,-395.25 575.88,-383.25 575.88,-383.25 575.88,-377.25 581.88,-371.25 587.88,-371.25 587.88,-371.25 630.12,-371.25 630.12,-371.25 636.12,-371.25 642.12,-377.25 642.12,-383.25 642.12,-383.25 642.12,-395.25 642.12,-395.25 642.12,-401.25 636.12,-407.25 630.12,-407.25"/>
<text text-anchor="start" x="599.62" y="-392.5" font-family="Helvetica,sans-Serif" font-size="10.00">App</text>
<text text-anchor="start" x="583.88" y="-379.75" font-family="Helvetica,sans-Serif" font-size="10.00">User Code</text>
</g>
<!-- p_lib -->
<g id="node2" class="node">
<title>p_lib</title>
<path fill="#90caf9" stroke="black" d="M684.38,-242.75C684.38,-242.75 619.62,-242.75 619.62,-242.75 613.62,-242.75 607.62,-236.75 607.62,-230.75 607.62,-230.75 607.62,-218.75 607.62,-218.75 607.62,-212.75 613.62,-206.75 619.62,-206.75 619.62,-206.75 684.38,-206.75 684.38,-206.75 690.38,-206.75 696.38,-212.75 696.38,-218.75 696.38,-218.75 696.38,-230.75 696.38,-230.75 696.38,-236.75 690.38,-242.75 684.38,-242.75"/>
<text text-anchor="start" x="644.88" y="-228" font-family="Helvetica,sans-Serif" font-size="10.00">Lib</text>
<text text-anchor="start" x="615.62" y="-215.25" font-family="Helvetica,sans-Serif" font-size="10.00">(enx_vdma.so)</text>
</g>
<!-- p_app&#45;&gt;p_lib -->
<g id="edge1" class="edge">
<title>p_app&#45;&gt;p_lib</title>
<path fill="none" stroke="#1565c0" d="M601.12,-370.92C595.4,-355.99 589.55,-333.96 595,-315.25 601.83,-291.82 616.85,-268.67 629.76,-251.79"/>
<polygon fill="#1565c0" stroke="#1565c0" points="632.24,-254.29 635.71,-244.28 626.76,-249.95 632.24,-254.29"/>
<text text-anchor="middle" x="653.5" y="-325.82" font-family="Helvetica,sans-Serif" font-size="9.00">(1) Buffer_Alloc(SRC, size)</text>
</g>
<!-- p_app&#45;&gt;p_lib -->
<g id="edge5" class="edge">
<title>p_app&#45;&gt;p_lib</title>
<path fill="none" stroke="#1565c0" d="M642.58,-383.01C666.41,-377.35 696.76,-365.75 712,-342.25 731.49,-312.2 704.32,-275.05 680.5,-250.9"/>
<polygon fill="#1565c0" stroke="#1565c0" points="683,-248.44 673.38,-243.98 678.12,-253.46 683,-248.44"/>
<text text-anchor="middle" x="776.38" y="-325.82" font-family="Helvetica,sans-Serif" font-size="9.00">(5) vdma_export(pvirt_A)</text>
</g>
<!-- c_app -->
<g id="node9" class="node">
<title>c_app</title>
<path fill="#c8e6c9" stroke="black" d="M176.12,-242.75C176.12,-242.75 133.88,-242.75 133.88,-242.75 127.88,-242.75 121.88,-236.75 121.88,-230.75 121.88,-230.75 121.88,-218.75 121.88,-218.75 121.88,-212.75 127.88,-206.75 133.88,-206.75 133.88,-206.75 176.12,-206.75 176.12,-206.75 182.12,-206.75 188.12,-212.75 188.12,-218.75 188.12,-218.75 188.12,-230.75 188.12,-230.75 188.12,-236.75 182.12,-242.75 176.12,-242.75"/>
<text text-anchor="start" x="145.62" y="-228" font-family="Helvetica,sans-Serif" font-size="10.00">App</text>
<text text-anchor="start" x="129.88" y="-215.25" font-family="Helvetica,sans-Serif" font-size="10.00">User Code</text>
</g>
<!-- p_app&#45;&gt;c_app -->
<g id="edge9" class="edge">
<title>p_app&#45;&gt;c_app</title>
<path fill="none" stroke="#c62828" stroke-width="2" d="M575.77,-388.14C459.16,-387.4 73.65,-381.97 37,-342.25 -15.68,-285.16 77.16,-331.77 113,-307.25 130.66,-295.17 141.35,-273.32 147.52,-255.28"/>
<polygon fill="#c62828" stroke="#c62828" stroke-width="2" points="150.81,-256.49 150.37,-245.91 144.12,-254.45 150.81,-256.49"/>
<text text-anchor="start" x="37" y="-334.7" font-family="Helvetica,sans-Serif" font-weight="bold" font-size="9.00" fill="#c62828">(8) SCM_RIGHTS</text>
<text text-anchor="start" x="46.38" y="-325.7" font-family="Helvetica,sans-Serif" font-size="9.00" fill="#c62828">(UNIX socket)</text>
<text text-anchor="start" x="46.38" y="-316.7" font-family="Helvetica,sans-Serif" font-size="9.00" fill="#c62828">export_fd 전달</text>
</g>
<!-- k_alloc -->
<g id="node4" class="node">
<title>k_alloc</title>
<path fill="#fff59d" stroke="black" d="M540.25,-153.5C540.25,-153.5 441.75,-153.5 441.75,-153.5 435.75,-153.5 429.75,-147.5 429.75,-141.5 429.75,-141.5 429.75,-127.5 429.75,-127.5 429.75,-121.5 435.75,-115.5 441.75,-115.5 441.75,-115.5 540.25,-115.5 540.25,-115.5 546.25,-115.5 552.25,-121.5 552.25,-127.5 552.25,-127.5 552.25,-141.5 552.25,-141.5 552.25,-147.5 546.25,-153.5 540.25,-153.5"/>
<text text-anchor="start" x="437.75" y="-141" font-family="Helvetica,sans-Serif" font-weight="bold" font-size="10.00">VDMAIOSET_ALLOC</text>
<text text-anchor="start" x="451.25" y="-131" font-family="Helvetica,sans-Serif" font-size="10.00">backing(kref=1)</text>
<text text-anchor="start" x="450.88" y="-121" font-family="Helvetica,sans-Serif" font-size="10.00">+ buf_A(kref=1)</text>
</g>
<!-- p_lib&#45;&gt;k_alloc -->
<g id="edge2" class="edge">
<title>p_lib&#45;&gt;k_alloc</title>
<path fill="none" stroke="#1565c0" d="M644.99,-206.32C639.53,-194.84 630.87,-180.35 619,-171.5 602.84,-159.45 582.8,-151.43 563.42,-146.09"/>
<polygon fill="#1565c0" stroke="#1565c0" points="564.46,-142.74 553.9,-143.69 562.74,-149.53 564.46,-142.74"/>
<text text-anchor="middle" x="663.38" y="-174.2" font-family="Helvetica,sans-Serif" font-size="9.00">(2) ioctl ALLOC</text>
</g>
<!-- k_export -->
<g id="node5" class="node">
<title>k_export</title>
<path fill="#fff59d" stroke="black" d="M539.75,-243.75C539.75,-243.75 432.25,-243.75 432.25,-243.75 426.25,-243.75 420.25,-237.75 420.25,-231.75 420.25,-231.75 420.25,-217.75 420.25,-217.75 420.25,-211.75 426.25,-205.75 432.25,-205.75 432.25,-205.75 539.75,-205.75 539.75,-205.75 545.75,-205.75 551.75,-211.75 551.75,-217.75 551.75,-217.75 551.75,-231.75 551.75,-231.75 551.75,-237.75 545.75,-243.75 539.75,-243.75"/>
<text text-anchor="start" x="428.25" y="-231.25" font-family="Helvetica,sans-Serif" font-weight="bold" font-size="10.00">VDMAIOSET_EXPORT</text>
<text text-anchor="start" x="442.5" y="-221.25" font-family="Helvetica,sans-Serif" font-size="10.00">anon_inode_getfd</text>
<text text-anchor="start" x="447.38" y="-211.25" font-family="Helvetica,sans-Serif" font-size="10.00">backing.kref++</text>
</g>
<!-- p_lib&#45;&gt;k_export -->
<g id="edge6" class="edge">
<title>p_lib&#45;&gt;k_export</title>
<path fill="none" stroke="#1565c0" d="M607.55,-224.75C593.98,-224.75 578.64,-224.75 563.55,-224.75"/>
<polygon fill="#1565c0" stroke="#1565c0" points="563.6,-221.25 553.6,-224.75 563.6,-228.25 563.6,-221.25"/>
<text text-anchor="middle" x="579.69" y="-230.45" font-family="Helvetica,sans-Serif" font-size="9.00">(6) ioctl EXPORT</text>
</g>
<!-- p_buf -->
<g id="node3" class="node">
<title>p_buf</title>
<path fill="#ffffff" stroke="black" d="M836.5,-408.25C836.5,-408.25 775.5,-408.25 775.5,-408.25 769.5,-408.25 763.5,-402.25 763.5,-396.25 763.5,-396.25 763.5,-382.25 763.5,-382.25 763.5,-376.25 769.5,-370.25 775.5,-370.25 775.5,-370.25 836.5,-370.25 836.5,-370.25 842.5,-370.25 848.5,-376.25 848.5,-382.25 848.5,-382.25 848.5,-396.25 848.5,-396.25 848.5,-402.25 842.5,-408.25 836.5,-408.25"/>
<text text-anchor="start" x="790.25" y="-395.75" font-family="Helvetica,sans-Serif" font-weight="bold" font-size="10.00">buf_A</text>
<text text-anchor="start" x="771.5" y="-385.75" font-family="Helvetica,sans-Serif" font-size="10.00">id=42, kref=2</text>
<text text-anchor="start" x="772.25" y="-375.75" font-family="Helvetica,sans-Serif" font-size="10.00">(owner+vma)</text>
</g>
<!-- k_backing -->
<g id="node7" class="node">
<title>k_backing</title>
<path fill="#ffeb3b" stroke="black" d="M503,-63.5C503,-66.12 467.14,-68.25 423,-68.25 378.86,-68.25 343,-66.12 343,-63.5 343,-63.5 343,-20.75 343,-20.75 343,-18.13 378.86,-16 423,-16 467.14,-16 503,-18.13 503,-20.75 503,-20.75 503,-63.5 503,-63.5"/>
<path fill="none" stroke="black" d="M503,-63.5C503,-60.88 467.14,-58.75 423,-58.75 378.86,-58.75 343,-60.88 343,-63.5"/>
<text text-anchor="start" x="400.5" y="-48.62" font-family="Helvetica,sans-Serif" font-weight="bold" font-size="10.00">backing</text>
<text text-anchor="start" x="373.12" y="-38.62" font-family="Helvetica,sans-Serif" font-size="10.00">cmm (ecmm region)</text>
<text text-anchor="start" x="351" y="-28.62" font-family="Helvetica,sans-Serif" font-size="10.00">kref = sum(views + anon_fd)</text>
</g>
<!-- p_buf&#45;&gt;k_backing -->
<g id="edge13" class="edge">
<title>p_buf&#45;&gt;k_backing</title>
<path fill="none" stroke="#1565c0" stroke-dasharray="1,5" d="M824.25,-370.01C838.23,-353.87 852.81,-330.57 838,-315.25 819.53,-296.15 619.91,-323.65 599,-307.25 586.74,-297.64 554.67,-183.98 564,-171.5 580.92,-148.86 608.08,-176.14 625,-153.5 636.97,-137.48 636.59,-124.8 625,-108.5 599.47,-72.6 553.76,-55.97 512.27,-48.45"/>
<ellipse fill="none" stroke="#1565c0" cx="507.93" cy="-47.72" rx="4" ry="4"/>
<text text-anchor="middle" x="589.5" y="-174.2" font-family="Helvetica,sans-Serif" font-size="9.00">backing ref</text>
</g>
<!-- k_alloc&#45;&gt;p_buf -->
<g id="edge4" class="edge">
<title>k_alloc&#45;&gt;p_buf</title>
<path fill="none" stroke="#1565c0" stroke-dasharray="5,2" d="M552.75,-137.71C595.96,-141.23 654.1,-149.98 701,-171.5 792.17,-213.33 832.26,-224.5 875,-315.25 880.11,-326.11 880.66,-331.67 875,-342.25 870.56,-350.55 863.88,-357.62 856.4,-363.53"/>
<polygon fill="#1565c0" stroke="#1565c0" points="854.71,-360.44 848.57,-369.08 858.76,-366.15 854.71,-360.44"/>
<text text-anchor="middle" x="909.75" y="-221.82" font-family="Helvetica,sans-Serif" font-size="9.00">(4) id=42, mmap</text>
</g>
<!-- k_alloc&#45;&gt;k_backing -->
<g id="edge3" class="edge">
<title>k_alloc&#45;&gt;k_backing</title>
<path fill="none" stroke="#1565c0" stroke-dasharray="5,2" d="M477.24,-115.21C469.12,-104.42 458.58,-90.41 448.95,-77.62"/>
<polygon fill="#1565c0" stroke="#1565c0" points="451.87,-75.67 443.06,-69.79 446.28,-79.88 451.87,-75.67"/>
<text text-anchor="middle" x="486.5" y="-88.95" font-family="Helvetica,sans-Serif" font-size="9.00">(3) create</text>
</g>
<!-- k_anonfd -->
<g id="node8" class="node">
<title>k_anonfd</title>
<path fill="#ffe082" stroke="black" d="M399.75,-152.5C399.75,-152.5 310.25,-152.5 310.25,-152.5 304.25,-152.5 298.25,-146.5 298.25,-140.5 298.25,-140.5 298.25,-128.5 298.25,-128.5 298.25,-122.5 304.25,-116.5 310.25,-116.5 310.25,-116.5 399.75,-116.5 399.75,-116.5 405.75,-116.5 411.75,-122.5 411.75,-128.5 411.75,-128.5 411.75,-140.5 411.75,-140.5 411.75,-146.5 405.75,-152.5 399.75,-152.5"/>
<text text-anchor="start" x="315.25" y="-136" font-family="Helvetica,sans-Serif" font-weight="bold" font-size="10.00">anon_inode fd</text>
<text text-anchor="start" x="306.25" y="-126" font-family="Helvetica,sans-Serif" font-size="10.00">(holds backing.kref)</text>
</g>
<!-- k_export&#45;&gt;k_anonfd -->
<g id="edge7" class="edge">
<title>k_export&#45;&gt;k_anonfd</title>
<path fill="none" stroke="#1565c0" stroke-dasharray="5,2" d="M458.86,-205.46C438.97,-192.07 411.8,-173.76 390.24,-159.24"/>
<polygon fill="#1565c0" stroke="#1565c0" points="392.28,-156.39 382.03,-153.71 388.36,-162.2 392.28,-156.39"/>
<text text-anchor="middle" x="467" y="-174.2" font-family="Helvetica,sans-Serif" font-size="9.00">(7) create anon_fd</text>
</g>
<!-- k_import -->
<g id="node6" class="node">
<title>k_import</title>
<path fill="#fff59d" stroke="black" d="M390.38,-243.75C390.38,-243.75 277.62,-243.75 277.62,-243.75 271.62,-243.75 265.62,-237.75 265.62,-231.75 265.62,-231.75 265.62,-217.75 265.62,-217.75 265.62,-211.75 271.62,-205.75 277.62,-205.75 277.62,-205.75 390.38,-205.75 390.38,-205.75 396.38,-205.75 402.38,-211.75 402.38,-217.75 402.38,-217.75 402.38,-231.75 402.38,-231.75 402.38,-237.75 396.38,-243.75 390.38,-243.75"/>
<text text-anchor="start" x="276.25" y="-231.25" font-family="Helvetica,sans-Serif" font-weight="bold" font-size="10.00">VDMAIOGET_IMPORT</text>
<text text-anchor="start" x="273.62" y="-221.25" font-family="Helvetica,sans-Serif" font-size="10.00">per&#45;session dedup check</text>
<text text-anchor="start" x="295.38" y="-211.25" font-family="Helvetica,sans-Serif" font-size="10.00">backing.kref++</text>
</g>
<!-- c_buf -->
<g id="node11" class="node">
<title>c_buf</title>
<path fill="#ffffff" stroke="black" d="M92,-248.75C92,-248.75 28,-248.75 28,-248.75 22,-248.75 16,-242.75 16,-236.75 16,-236.75 16,-212.75 16,-212.75 16,-206.75 22,-200.75 28,-200.75 28,-200.75 92,-200.75 92,-200.75 98,-200.75 104,-206.75 104,-212.75 104,-212.75 104,-236.75 104,-236.75 104,-242.75 98,-248.75 92,-248.75"/>
<text text-anchor="start" x="44.25" y="-236.25" font-family="Helvetica,sans-Serif" font-weight="bold" font-size="10.00">buf_B</text>
<text text-anchor="start" x="25.5" y="-226.25" font-family="Helvetica,sans-Serif" font-size="10.00">id=99, kref=2</text>
<text text-anchor="start" x="24" y="-216.25" font-family="Helvetica,sans-Serif" font-size="10.00">imported=true</text>
<text text-anchor="start" x="26.25" y="-206.25" font-family="Helvetica,sans-Serif" font-size="10.00">(owner+vma)</text>
</g>
<!-- k_import&#45;&gt;c_buf -->
<g id="edge12" class="edge">
<title>k_import&#45;&gt;c_buf</title>
<path fill="none" stroke="#2e7d32" stroke-dasharray="5,2" d="M322.25,-243.97C307.83,-265.5 281.15,-299.24 248,-313.25 196.42,-335.05 175.6,-329.48 122,-313.25 97.42,-305.81 81.4,-281.03 71.82,-259.57"/>
<polygon fill="#2e7d32" stroke="#2e7d32" points="75.12,-258.4 68.07,-250.48 68.65,-261.06 75.12,-258.4"/>
<text text-anchor="middle" x="185" y="-331.45" font-family="Helvetica,sans-Serif" font-size="9.00">(11) new view</text>
<text text-anchor="middle" x="185" y="-320.2" font-family="Helvetica,sans-Serif" font-size="9.00">id=99 (or &#45;EEXIST if dedup)</text>
</g>
<!-- k_anonfd&#45;&gt;k_backing -->
<g id="edge8" class="edge">
<title>k_anonfd&#45;&gt;k_backing</title>
<path fill="none" stroke="#f57f17" stroke-dasharray="1,5" d="M368.11,-116.07C376.72,-104.63 388.25,-89.31 398.52,-75.66"/>
<ellipse fill="none" stroke="#f57f17" cx="401.05" cy="-72.3" rx="4" ry="4"/>
<text text-anchor="middle" x="404.38" y="-88.95" font-family="Helvetica,sans-Serif" font-size="9.00">kref+1</text>
</g>
<!-- c_lib -->
<g id="node10" class="node">
<title>c_lib</title>
<path fill="#a5d6a7" stroke="black" d="M138.38,-152.5C138.38,-152.5 73.62,-152.5 73.62,-152.5 67.62,-152.5 61.62,-146.5 61.62,-140.5 61.62,-140.5 61.62,-128.5 61.62,-128.5 61.62,-122.5 67.62,-116.5 73.62,-116.5 73.62,-116.5 138.38,-116.5 138.38,-116.5 144.38,-116.5 150.38,-122.5 150.38,-128.5 150.38,-128.5 150.38,-140.5 150.38,-140.5 150.38,-146.5 144.38,-152.5 138.38,-152.5"/>
<text text-anchor="start" x="98.88" y="-137.75" font-family="Helvetica,sans-Serif" font-size="10.00">Lib</text>
<text text-anchor="start" x="69.62" y="-125" font-family="Helvetica,sans-Serif" font-size="10.00">(enx_vdma.so)</text>
</g>
<!-- c_app&#45;&gt;c_lib -->
<g id="edge10" class="edge">
<title>c_app&#45;&gt;c_lib</title>
<path fill="none" stroke="#2e7d32" d="M145.32,-206.31C138.41,-193.86 128.97,-176.87 121.08,-162.66"/>
<polygon fill="#2e7d32" stroke="#2e7d32" points="124.31,-161.27 116.4,-154.22 118.19,-164.66 124.31,-161.27"/>
<text text-anchor="middle" x="192.75" y="-174.2" font-family="Helvetica,sans-Serif" font-size="9.00">(9) vdma_import(fd, KIND)</text>
</g>
<!-- c_lib&#45;&gt;k_import -->
<g id="edge11" class="edge">
<title>c_lib&#45;&gt;k_import</title>
<path fill="none" stroke="#2e7d32" d="M150.64,-142.77C179.94,-148.45 218.66,-157.73 251,-171.5 268.09,-178.78 285.69,-189.34 300.26,-199.07"/>
<polygon fill="#2e7d32" stroke="#2e7d32" points="297.88,-201.69 308.11,-204.45 301.84,-195.91 297.88,-201.69"/>
<text text-anchor="middle" x="311.62" y="-174.2" font-family="Helvetica,sans-Serif" font-size="9.00">(10) ioctl IMPORT</text>
</g>
<!-- c_buf&#45;&gt;k_backing -->
<g id="edge14" class="edge">
<title>c_buf&#45;&gt;k_backing</title>
<path fill="none" stroke="#2e7d32" stroke-dasharray="1,5" d="M104.36,-201.3C107.24,-200.32 110.13,-199.45 113,-198.75 279.74,-157.75 332.26,-223.75 499,-182.75 513.79,-179.11 552.84,-166.37 561,-153.5 571.71,-136.61 571.69,-125.4 561,-108.5 549.35,-90.09 530.96,-76.76 511.36,-67.15"/>
<ellipse fill="none" stroke="#2e7d32" cx="507.28" cy="-65.27" rx="4" ry="4"/>
<text text-anchor="middle" x="595.5" y="-137.2" font-family="Helvetica,sans-Serif" font-size="9.00">backing ref</text>
<text text-anchor="middle" x="595.5" y="-125.95" font-family="Helvetica,sans-Serif" font-size="9.00">(shared)</text>
</g>
<!-- L1 -->
<g id="node12" class="node">
<title>L1</title>
<path fill="none" stroke="none" d="M1120.38,-407.25C1120.38,-407.25 1049.62,-407.25 1049.62,-407.25 1043.62,-407.25 1037.62,-401.25 1037.62,-395.25 1037.62,-395.25 1037.62,-383.25 1037.62,-383.25 1037.62,-377.25 1043.62,-371.25 1049.62,-371.25 1049.62,-371.25 1120.38,-371.25 1120.38,-371.25 1126.38,-371.25 1132.38,-377.25 1132.38,-383.25 1132.38,-383.25 1132.38,-395.25 1132.38,-395.25 1132.38,-401.25 1126.38,-407.25 1120.38,-407.25"/>
<text text-anchor="start" x="1045.62" y="-386.12" font-family="Helvetica,sans-Serif" font-size="10.00">solid → ioctl call</text>
</g>
<!-- L2 -->
<g id="node13" class="node">
<title>L2</title>
<path fill="none" stroke="none" d="M1141.38,-242.75C1141.38,-242.75 1028.62,-242.75 1028.62,-242.75 1022.62,-242.75 1016.62,-236.75 1016.62,-230.75 1016.62,-230.75 1016.62,-218.75 1016.62,-218.75 1016.62,-212.75 1022.62,-206.75 1028.62,-206.75 1028.62,-206.75 1141.38,-206.75 1141.38,-206.75 1147.38,-206.75 1153.38,-212.75 1153.38,-218.75 1153.38,-218.75 1153.38,-230.75 1153.38,-230.75 1153.38,-236.75 1147.38,-242.75 1141.38,-242.75"/>
<text text-anchor="start" x="1024.62" y="-221.62" font-family="Helvetica,sans-Serif" font-size="10.00">dashed → kernel&#45;internal</text>
</g>
<!-- L1&#45;&gt;L2 -->
<!-- L3 -->
<g id="node14" class="node">
<title>L3</title>
<path fill="none" stroke="none" d="M1130.5,-152.5C1130.5,-152.5 1039.5,-152.5 1039.5,-152.5 1033.5,-152.5 1027.5,-146.5 1027.5,-140.5 1027.5,-140.5 1027.5,-128.5 1027.5,-128.5 1027.5,-122.5 1033.5,-116.5 1039.5,-116.5 1039.5,-116.5 1130.5,-116.5 1130.5,-116.5 1136.5,-116.5 1142.5,-122.5 1142.5,-128.5 1142.5,-128.5 1142.5,-140.5 1142.5,-140.5 1142.5,-146.5 1136.5,-152.5 1130.5,-152.5"/>
<text text-anchor="start" x="1035.5" y="-131.38" font-family="Helvetica,sans-Serif" font-size="10.00">dotted → kref holder</text>
</g>
<!-- L2&#45;&gt;L3 -->
<!-- L4 -->
<g id="node15" class="node">
<title>L4</title>
<path fill="none" stroke="none" d="M1172.88,-60.12C1172.88,-60.12 997.12,-60.12 997.12,-60.12 991.12,-60.12 985.12,-54.12 985.12,-48.12 985.12,-48.12 985.12,-36.12 985.12,-36.12 985.12,-30.12 991.12,-24.12 997.12,-24.12 997.12,-24.12 1172.88,-24.12 1172.88,-24.12 1178.88,-24.12 1184.88,-30.12 1184.88,-36.12 1184.88,-36.12 1184.88,-48.12 1184.88,-48.12 1184.88,-54.12 1178.88,-60.12 1172.88,-60.12"/>
<text text-anchor="start" x="993.12" y="-40" font-family="Helvetica,sans-Serif" font-weight="bold" font-size="10.00" fill="#c62828">bold red</text>
<text text-anchor="start" x="1041.88" y="-40" font-family="Helvetica,sans-Serif" font-size="10.00"> → cross&#45;process fd transfer</text>
</g>
<!-- L3&#45;&gt;L4 -->
<!-- note -->
<g id="node16" class="node">
<title>note</title>
<polygon fill="#fff3e0" stroke="#ef6c00" points="1714.62,-418.25 1201.38,-418.25 1201.38,-360.25 1720.62,-360.25 1720.62,-412.25 1714.62,-418.25"/>
<polyline fill="none" stroke="#ef6c00" points="1714.62,-418.25 1714.62,-412.25"/>
<polyline fill="none" stroke="#ef6c00" points="1720.62,-412.25 1714.62,-412.25"/>
<text text-anchor="start" x="1412.25" y="-405.75" font-family="Helvetica,sans-Serif" font-weight="bold" font-size="10.00">Key Mechanisms:</text>
<text text-anchor="start" x="1209.38" y="-395.75" font-family="Helvetica,sans-Serif" font-size="10.00"> &#160;&#160;&#160;&#160;&#160;&#160;&#160;&#160;&#160;&#160;&#160;&#160;&#160;&#160;• </text>
<text text-anchor="start" x="1263.38" y="-395.75" font-family="Helvetica,sans-Serif" font-weight="bold" font-size="10.00">SCM_RIGHTS</text>
<text text-anchor="start" x="1335.38" y="-395.75" font-family="Helvetica,sans-Serif" font-size="10.00"> : UNIX socket 으로 fd 전송 → 받는 process 의 fd table 매핑 </text>
<text text-anchor="start" x="1209.38" y="-385.75" font-family="Helvetica,sans-Serif" font-size="10.00"> &#160;&#160;&#160;&#160;&#160;&#160;&#160;&#160;&#160;&#160;&#160;&#160;&#160;&#160;• </text>
<text text-anchor="start" x="1263.38" y="-385.75" font-family="Helvetica,sans-Serif" font-weight="bold" font-size="10.00">anon_inode</text>
<text text-anchor="start" x="1327.12" y="-385.75" font-family="Helvetica,sans-Serif" font-size="10.00"> : EXPORT 가 만든 fd 의 private_data = backing ; fd close 시 backing kref&#45;1 </text>
<text text-anchor="start" x="1209.38" y="-375.75" font-family="Helvetica,sans-Serif" font-size="10.00"> &#160;&#160;&#160;&#160;&#160;&#160;&#160;&#160;&#160;&#160;&#160;&#160;&#160;&#160;• </text>
<text text-anchor="start" x="1263.38" y="-375.75" font-family="Helvetica,sans-Serif" font-weight="bold" font-size="10.00">per&#45;session dedup</text>
<text text-anchor="start" x="1369.12" y="-375.75" font-family="Helvetica,sans-Serif" font-size="10.00"> : 같은 backing 재 IMPORT 시 &#45;EEXIST + 기존 view 의 id 반환 (idempotent) </text>
<text text-anchor="start" x="1209.38" y="-365.75" font-family="Helvetica,sans-Serif" font-size="10.00"> &#160;&#160;&#160;&#160;&#160;&#160;&#160;&#160;&#160;&#160;&#160;&#160;&#160;&#160;• </text>
<text text-anchor="start" x="1263.38" y="-365.75" font-family="Helvetica,sans-Serif" font-weight="bold" font-size="10.00">backing kref</text>
<text text-anchor="start" x="1335.38" y="-365.75" font-family="Helvetica,sans-Serif" font-size="10.00"> : 모든 view + anon_fd 가 0 일 때만 ecmm_free </text>
</g>
</g>
</svg>
