<?xml version="1.0" encoding="UTF-8" standalone="no"?>
<!DOCTYPE svg PUBLIC "-//W3C//DTD SVG 1.1//EN"
 "http://www.w3.org/Graphics/SVG/1.1/DTD/svg11.dtd">
<!-- Generated by graphviz version 9.0.0 (20230911.1827)
 -->
<!-- Title: LOCK_HIERARCHY Pages: 1 -->
<svg width="1655pt" height="450pt"
 viewBox="0.00 0.00 1655.00 450.21" xmlns="http://www.w3.org/2000/svg" xmlns:xlink="http://www.w3.org/1999/xlink">
<g id="graph0" class="graph" transform="scale(1 1) rotate(0) translate(4 446.21)">
<title>LOCK_HIERARCHY</title>
<polygon fill="white" stroke="none" points="-4,4 -4,-446.21 1651,-446.21 1651,4 -4,4"/>
<g id="clust1" class="cluster">
<title>cluster_mutex</title>
<path fill="#fce4ec" stroke="#c2185b" d="M410,-157.13C410,-157.13 772,-157.13 772,-157.13 778,-157.13 784,-163.13 784,-169.13 784,-169.13 784,-422.21 784,-422.21 784,-428.21 778,-434.21 772,-434.21 772,-434.21 410,-434.21 410,-434.21 404,-434.21 398,-428.21 398,-422.21 398,-422.21 398,-169.13 398,-169.13 398,-163.13 404,-157.13 410,-157.13"/>
<text text-anchor="start" x="406" y="-417.91" font-family="Helvetica,sans-Serif" font-weight="bold" font-size="14.00">Mutex layer</text>
<text text-anchor="start" x="413.12" y="-403.91" font-family="Helvetica,sans-Serif" font-size="14.00">(sleep 가능)</text>
</g>
<g id="clust2" class="cluster">
<title>cluster_spin</title>
<path fill="#e3f2fd" stroke="#1565c0" d="M20,-8C20,-8 751,-8 751,-8 757,-8 763,-14 763,-20 763,-20 763,-115.88 763,-115.88 763,-121.88 757,-127.88 751,-127.88 751,-127.88 20,-127.88 20,-127.88 14,-127.88 8,-121.88 8,-115.88 8,-115.88 8,-20 8,-20 8,-14 14,-8 20,-8"/>
<text text-anchor="start" x="16" y="-111.58" font-family="Helvetica,sans-Serif" font-weight="bold" font-size="14.00">Spinlock layer</text>
<text text-anchor="start" x="31" y="-97.58" font-family="Helvetica,sans-Serif" font-size="14.00">(sleep 불가)</text>
</g>
<g id="clust3" class="cluster">
<title>cluster_legend</title>
<path fill="#fafafa" stroke="#9e9e9e" d="M1481,-23.94C1481,-23.94 1627,-23.94 1627,-23.94 1633,-23.94 1639,-29.94 1639,-35.94 1639,-35.94 1639,-395.51 1639,-395.51 1639,-401.51 1633,-407.51 1627,-407.51 1627,-407.51 1481,-407.51 1481,-407.51 1475,-407.51 1469,-401.51 1469,-395.51 1469,-395.51 1469,-35.94 1469,-35.94 1469,-29.94 1475,-23.94 1481,-23.94"/>
<text text-anchor="start" x="1525.12" y="-391.21" font-family="Helvetica,sans-Serif" font-weight="bold" font-size="14.00">Legend</text>
</g>
<!-- sessions_lock -->
<g id="node1" class="node">
<title>sessions_lock</title>
<ellipse fill="#ffcdd2" stroke="#b71c1c" stroke-width="2" cx="676" cy="-356.26" rx="100.41" ry="33.94"/>
<text text-anchor="start" x="625.75" y="-367.76" font-family="Helvetica,sans-Serif" font-weight="bold" font-size="10.00">dev.sessions_lock</text>
<text text-anchor="start" x="660.25" y="-357.76" font-family="Helvetica,sans-Serif" font-size="10.00">mutex</text>
<text text-anchor="start" x="650.88" y="-347.76" font-family="Helvetica,sans-Serif" font-style="italic" font-size="10.00">outermost</text>
<text text-anchor="start" x="613" y="-337.76" font-family="Helvetica,sans-Serif" font-size="10.00">protects: dev.sessions list</text>
</g>
<!-- vs_lock -->
<g id="node2" class="node">
<title>vs_lock</title>
<ellipse fill="#c8e6c9" stroke="#1b5e20" cx="522" cy="-199.07" rx="99.35" ry="33.94"/>
<text text-anchor="start" x="502.12" y="-210.57" font-family="Helvetica,sans-Serif" font-weight="bold" font-size="10.00">vs.lock</text>
<text text-anchor="start" x="506.25" y="-200.57" font-family="Helvetica,sans-Serif" font-size="10.00">mutex</text>
<text text-anchor="start" x="480" y="-190.57" font-family="Helvetica,sans-Serif" font-style="italic" font-size="10.00">per&#45;session inner</text>
<text text-anchor="start" x="459.75" y="-180.57" font-family="Helvetica,sans-Serif" font-size="10.00">protects: vs.bufs / vs.jobs</text>
</g>
<!-- sessions_lock&#45;&gt;vs_lock -->
<g id="edge1" class="edge">
<title>sessions_lock&#45;&gt;vs_lock</title>
<path fill="none" stroke="#2e7d32" stroke-width="2" d="M635.38,-324.29C615.41,-309.86 590.62,-293.09 567,-280.26 548.61,-270.28 535.34,-279.52 523.5,-262.26 520.18,-257.42 518.2,-251.84 517.15,-246.04"/>
<polygon fill="#2e7d32" stroke="#2e7d32" stroke-width="2" points="520.65,-245.92 516.38,-236.23 513.67,-246.47 520.65,-245.92"/>
<text text-anchor="middle" x="566.75" y="-253.71" font-family="Helvetica,sans-Serif" font-size="9.00">OK (outer to inner)</text>
</g>
<!-- xa_buf -->
<g id="node4" class="node">
<title>xa_buf</title>
<ellipse fill="#bbdefb" stroke="#1565c0" cx="675" cy="-49.94" rx="79.73" ry="26.87"/>
<text text-anchor="start" x="630.75" y="-56.44" font-family="Helvetica,sans-Serif" font-weight="bold" font-size="10.00">xa_lock(buf_xa)</text>
<text text-anchor="start" x="654.75" y="-46.44" font-family="Helvetica,sans-Serif" font-size="10.00">spinlock</text>
<text text-anchor="start" x="626.62" y="-36.44" font-family="Helvetica,sans-Serif" font-style="italic" font-size="10.00">xarray entry atomic</text>
</g>
<!-- sessions_lock&#45;&gt;xa_buf -->
<g id="edge4" class="edge">
<title>sessions_lock&#45;&gt;xa_buf</title>
<path fill="none" stroke="#2e7d32" d="M710.78,-323.45C726.28,-306.91 742.85,-285.34 751,-262.26 760.62,-235.02 839.96,-376.32 747,-135.88 739.42,-116.29 725.31,-98.02 711.56,-83.49"/>
<polygon fill="#2e7d32" stroke="#2e7d32" points="714.15,-81.12 704.63,-76.46 709.16,-86.04 714.15,-81.12"/>
<text text-anchor="middle" x="787.38" y="-196.15" font-family="Helvetica,sans-Serif" font-size="9.00">OK</text>
</g>
<!-- vs_lock&#45;&gt;sessions_lock -->
<g id="edge5" class="edge">
<title>vs_lock&#45;&gt;sessions_lock</title>
<path fill="none" stroke="#c62828" stroke-width="1.5" stroke-dasharray="5,2" d="M577.68,-227.39C588.74,-234.23 599.78,-242.17 609,-251.01 627.03,-268.31 642.49,-291.37 654,-311.4"/>
<polygon fill="#c62828" stroke="#c62828" stroke-width="1.5" points="650.79,-312.83 658.71,-319.87 656.91,-309.43 650.79,-312.83"/>
<text text-anchor="middle" x="683.12" y="-253.71" font-family="Helvetica,sans-Serif" font-size="9.00">❌ reverse (AB&#45;BA deadlock)</text>
</g>
<!-- vs_lock&#45;&gt;xa_buf -->
<g id="edge2" class="edge">
<title>vs_lock&#45;&gt;xa_buf</title>
<path fill="none" stroke="#2e7d32" d="M521.93,-164.74C523.6,-154.17 527.39,-143.31 535.25,-135.88 552.17,-119.9 565.9,-137.71 587,-127.88 609.09,-117.59 629.82,-100.03 645.6,-84.28"/>
<polygon fill="#2e7d32" stroke="#2e7d32" points="647.88,-86.96 652.33,-77.34 642.85,-82.08 647.88,-86.96"/>
<text text-anchor="middle" x="542.38" y="-138.58" font-family="Helvetica,sans-Serif" font-size="9.00">OK</text>
</g>
<!-- xa_job -->
<g id="node5" class="node">
<title>xa_job</title>
<ellipse fill="#bbdefb" stroke="#1565c0" cx="498" cy="-49.94" rx="79.73" ry="26.87"/>
<text text-anchor="start" x="454.12" y="-56.44" font-family="Helvetica,sans-Serif" font-weight="bold" font-size="10.00">xa_lock(job_xa)</text>
<text text-anchor="start" x="477.75" y="-46.44" font-family="Helvetica,sans-Serif" font-size="10.00">spinlock</text>
<text text-anchor="start" x="449.62" y="-36.44" font-family="Helvetica,sans-Serif" font-style="italic" font-size="10.00">xarray entry atomic</text>
</g>
<!-- vs_lock&#45;&gt;xa_job -->
<g id="edge3" class="edge">
<title>vs_lock&#45;&gt;xa_job</title>
<path fill="none" stroke="#2e7d32" d="M505.05,-165.31C502.67,-159.4 500.58,-153.19 499.25,-147.13 495.06,-128.09 494.43,-106.41 494.99,-88.46"/>
<polygon fill="#2e7d32" stroke="#2e7d32" points="498.48,-88.65 495.45,-78.5 491.49,-88.33 498.48,-88.65"/>
<text text-anchor="middle" x="506.38" y="-138.58" font-family="Helvetica,sans-Serif" font-size="9.00">OK</text>
</g>
<!-- hw_lock -->
<g id="node3" class="node">
<title>hw_lock</title>
<ellipse fill="#fff59d" stroke="#f57f17" cx="482" cy="-356.26" rx="76.01" ry="33.94"/>
<text text-anchor="start" x="447.88" y="-367.76" font-family="Helvetica,sans-Serif" font-weight="bold" font-size="10.00">dev.hw_lock</text>
<text text-anchor="start" x="466.25" y="-357.76" font-family="Helvetica,sans-Serif" font-size="10.00">mutex</text>
<text text-anchor="start" x="439.62" y="-347.76" font-family="Helvetica,sans-Serif" font-style="italic" font-size="10.00">독립 (HW reg seq)</text>
<text text-anchor="start" x="436.25" y="-337.76" font-family="Helvetica,sans-Serif" font-size="10.00">worker thread only</text>
</g>
<!-- xa_buf&#45;&gt;sessions_lock -->
<g id="edge9" class="edge">
<title>xa_buf&#45;&gt;sessions_lock</title>
<path fill="none" stroke="#c62828" stroke-dasharray="5,2" d="M715.92,-73.31C744.8,-91.61 781.21,-120.45 798,-157.13 817.62,-199.99 812.65,-224.83 784,-262.26 768.29,-282.79 747.42,-302.05 728.22,-317.66"/>
<polygon fill="#c62828" stroke="#c62828" points="726.08,-314.89 720.43,-323.85 730.44,-320.37 726.08,-314.89"/>
<text text-anchor="middle" x="850.25" y="-196.15" font-family="Helvetica,sans-Serif" font-size="9.00">❌ sleep in atomic</text>
</g>
<!-- xa_buf&#45;&gt;vs_lock -->
<g id="edge10" class="edge">
<title>xa_buf&#45;&gt;vs_lock</title>
<path fill="none" stroke="#c62828" stroke-dasharray="5,2" d="M650.16,-75.58C633.23,-91.61 609.82,-112.36 587,-127.88 580.59,-132.24 577.49,-130.96 571.5,-135.88 564.06,-141.99 557.01,-149.38 550.67,-156.91"/>
<polygon fill="#c62828" stroke="#c62828" points="548.07,-154.56 544.54,-164.55 553.53,-158.94 548.07,-154.56"/>
<text text-anchor="middle" x="613.25" y="-138.58" font-family="Helvetica,sans-Serif" font-size="9.00">❌ sleep in atomic</text>
</g>
<!-- irq_lock -->
<g id="node6" class="node">
<title>irq_lock</title>
<ellipse fill="#90caf9" stroke="#0d47a1" stroke-width="2" cx="304" cy="-49.94" rx="96.17" ry="33.94"/>
<text text-anchor="start" x="269.5" y="-61.44" font-family="Helvetica,sans-Serif" font-weight="bold" font-size="10.00">dev.irq_lock</text>
<text text-anchor="start" x="283.75" y="-51.44" font-family="Helvetica,sans-Serif" font-size="10.00">spinlock</text>
<text text-anchor="start" x="272.12" y="-41.44" font-family="Helvetica,sans-Serif" font-style="italic" font-size="10.00">ISR / proc ctx</text>
<text text-anchor="start" x="244" y="-31.44" font-family="Helvetica,sans-Serif" font-size="10.00">hw_idle / driver counters</text>
</g>
<!-- irq_lock&#45;&gt;sessions_lock -->
<g id="edge6" class="edge">
<title>irq_lock&#45;&gt;sessions_lock</title>
<path fill="none" stroke="#c62828" stroke-dasharray="5,2" d="M336.42,-82.82C355.78,-99.63 381.83,-118.64 409,-127.88 444.56,-139.99 709.56,-132.78 747,-135.88 813.66,-141.41 852.17,-106.6 896,-157.13 918.1,-182.61 914.55,-204.85 896,-233.01 866.73,-277.45 832.64,-254.66 786,-280.26 765.81,-291.35 744.68,-305.16 726.39,-317.91"/>
<polygon fill="#c62828" stroke="#c62828" points="724.5,-314.96 718.34,-323.58 728.53,-320.68 724.5,-314.96"/>
<text text-anchor="middle" x="952.25" y="-196.15" font-family="Helvetica,sans-Serif" font-size="9.00">❌ sleep in atomic</text>
</g>
<!-- irq_lock&#45;&gt;vs_lock -->
<g id="edge7" class="edge">
<title>irq_lock&#45;&gt;vs_lock</title>
<path fill="none" stroke="#c62828" stroke-dasharray="5,2" d="M336.45,-82.73C355.82,-99.5 381.87,-118.51 409,-127.88 421.87,-132.33 644.53,-126.1 654,-135.88 673.31,-155.83 651.89,-170.1 621.07,-179.9"/>
<polygon fill="#c62828" stroke="#c62828" points="620.37,-176.45 611.76,-182.62 622.34,-183.17 620.37,-176.45"/>
<text text-anchor="middle" x="702.25" y="-138.58" font-family="Helvetica,sans-Serif" font-size="9.00">❌ sleep in atomic</text>
</g>
<!-- irq_lock&#45;&gt;hw_lock -->
<g id="edge8" class="edge">
<title>irq_lock&#45;&gt;hw_lock</title>
<path fill="none" stroke="#c62828" stroke-dasharray="5,2" d="M335.92,-82.53C355.32,-99.47 381.57,-118.71 409,-127.88 440.98,-138.58 982.32,-134.23 1016,-135.88 1071.69,-138.61 1228.28,-116.07 1266,-157.13 1288.82,-181.97 1289.03,-208.38 1266,-233.01 1212.84,-289.88 638.84,-250.29 567,-280.26 547.87,-288.25 530.09,-302.36 515.79,-316.2"/>
<polygon fill="#c62828" stroke="#c62828" points="513.41,-313.63 508.86,-323.2 518.38,-318.56 513.41,-313.63"/>
<text text-anchor="middle" x="1324.25" y="-196.15" font-family="Helvetica,sans-Serif" font-size="9.00">❌ sleep in atomic</text>
</g>
<!-- drv_lock -->
<g id="node7" class="node">
<title>drv_lock</title>
<ellipse fill="#ce93d8" stroke="#6a1b9a" cx="103" cy="-49.94" rx="86.62" ry="33.94"/>
<text text-anchor="start" x="61" y="-61.44" font-family="Helvetica,sans-Serif" font-weight="bold" font-size="10.00">driver fds.lock</text>
<text text-anchor="start" x="82.75" y="-51.44" font-family="Helvetica,sans-Serif" font-size="10.00">spinlock</text>
<text text-anchor="start" x="65.12" y="-41.44" font-family="Helvetica,sans-Serif" font-style="italic" font-size="10.00">per&#45;driver state</text>
<text text-anchor="start" x="49.75" y="-31.44" font-family="Helvetica,sans-Serif" font-size="10.00">e.g. font active_mode</text>
</g>
<!-- violations -->
<g id="node8" class="node">
<title>violations</title>
<polygon fill="#fff3e0" stroke="#ef6c00" points="1117.38,-432.26 794.62,-432.26 794.62,-280.26 1123.38,-280.26 1123.38,-426.26 1117.38,-432.26"/>
<polyline fill="none" stroke="#ef6c00" points="1117.38,-432.26 1117.38,-426.26"/>
<polyline fill="none" stroke="#ef6c00" points="1123.38,-426.26 1117.38,-426.26"/>
<text text-anchor="start" x="867.88" y="-420.71" font-family="Helvetica,sans-Serif" font-weight="bold" font-size="9.00">Common Violations and Symptoms:</text>
<text text-anchor="start" x="890" y="-411.71" font-family="Helvetica,sans-Serif" font-size="9.00"> &#160;&#160;&#160;&#160;&#160;&#160;&#160;&#160;&#160;&#160;&#160;&#160;&#160;&#160;</text>
<text text-anchor="start" x="935" y="-411.71" font-family="Helvetica,sans-Serif" font-weight="bold" font-size="9.00">1. AB&#45;BA Deadlock</text>
<text text-anchor="start" x="802.62" y="-402.71" font-family="Helvetica,sans-Serif" font-size="9.00"> &#160;&#160;&#160;&#160;&#160;&#160;&#160;&#160;&#160;&#160;&#160;&#160;&#160;&#160;&#160;&#160;&#160;Two threads acquire mutexes in opposite order </text>
<text text-anchor="start" x="802.62" y="-393.71" font-family="Helvetica,sans-Serif" font-size="9.00"> &#160;&#160;&#160;&#160;&#160;&#160;&#160;&#160;&#160;&#160;&#160;&#160;&#160;&#160;&#160;&#160;&#160;=&gt; Both wait forever (lockdep catches at boot) </text>
<text text-anchor="start" x="868.62" y="-375.71" font-family="Helvetica,sans-Serif" font-size="9.00"> &#160;&#160;&#160;&#160;&#160;&#160;&#160;&#160;&#160;&#160;&#160;&#160;&#160;&#160;</text>
<text text-anchor="start" x="913.62" y="-375.71" font-family="Helvetica,sans-Serif" font-weight="bold" font-size="9.00">2. Sleep in Atomic Context</text>
<text text-anchor="start" x="802.62" y="-366.71" font-family="Helvetica,sans-Serif" font-size="9.00"> &#160;&#160;&#160;&#160;&#160;&#160;&#160;&#160;&#160;&#160;&#160;&#160;&#160;&#160;&#160;&#160;&#160;BUG: sleeping function called from invalid context </text>
<text text-anchor="start" x="802.62" y="-357.71" font-family="Helvetica,sans-Serif" font-size="9.00"> &#160;&#160;&#160;&#160;&#160;&#160;&#160;&#160;&#160;&#160;&#160;&#160;&#160;&#160;&#160;&#160;&#160;=&gt; Caused by GFP_KERNEL / mutex inside spinlock </text>
<text text-anchor="start" x="875" y="-339.71" font-family="Helvetica,sans-Serif" font-size="9.00"> &#160;&#160;&#160;&#160;&#160;&#160;&#160;&#160;&#160;&#160;&#160;&#160;&#160;&#160;</text>
<text text-anchor="start" x="920" y="-339.71" font-family="Helvetica,sans-Serif" font-weight="bold" font-size="9.00">3. IRQ&#45;safe Lock Missing</text>
<text text-anchor="start" x="802.62" y="-330.71" font-family="Helvetica,sans-Serif" font-size="9.00"> &#160;&#160;&#160;&#160;&#160;&#160;&#160;&#160;&#160;&#160;&#160;&#160;&#160;&#160;&#160;&#160;&#160;ISR spinning on lock held by process ctx =&gt; CPU lockup </text>
<text text-anchor="start" x="802.62" y="-321.71" font-family="Helvetica,sans-Serif" font-size="9.00"> &#160;&#160;&#160;&#160;&#160;&#160;&#160;&#160;&#160;&#160;&#160;&#160;&#160;&#160;&#160;&#160;&#160;=&gt; Use spin_lock_irqsave in process ctx </text>
<text text-anchor="start" x="881" y="-303.71" font-family="Helvetica,sans-Serif" font-size="9.00"> &#160;&#160;&#160;&#160;&#160;&#160;&#160;&#160;&#160;&#160;&#160;&#160;&#160;&#160;</text>
<text text-anchor="start" x="926" y="-303.71" font-family="Helvetica,sans-Serif" font-weight="bold" font-size="9.00">4. Lock Held Too Long</text>
<text text-anchor="start" x="802.62" y="-294.71" font-family="Helvetica,sans-Serif" font-size="9.00"> &#160;&#160;&#160;&#160;&#160;&#160;&#160;&#160;&#160;&#160;&#160;&#160;&#160;&#160;&#160;&#160;&#160;Latency spike, throughput drops </text>
<text text-anchor="start" x="802.62" y="-285.71" font-family="Helvetica,sans-Serif" font-size="9.00"> &#160;&#160;&#160;&#160;&#160;&#160;&#160;&#160;&#160;&#160;&#160;&#160;&#160;&#160;&#160;&#160;&#160;=&gt; hw_lock 만 intentionally long; 다른 lock 은 가능한 짧게 </text>
</g>
<!-- rules -->
<g id="node9" class="node">
<title>rules</title>
<polygon fill="#e8f5e9" stroke="#2e7d32" points="1454.88,-396.26 1141.12,-396.26 1141.12,-316.26 1460.88,-316.26 1460.88,-390.26 1454.88,-396.26"/>
<polyline fill="none" stroke="#2e7d32" points="1454.88,-396.26 1454.88,-390.26"/>
<polyline fill="none" stroke="#2e7d32" points="1460.88,-390.26 1454.88,-390.26"/>
<text text-anchor="start" x="1255.25" y="-384.71" font-family="Helvetica,sans-Serif" font-weight="bold" font-size="9.00">Acquisition Rules:</text>
<text text-anchor="start" x="1149.12" y="-375.71" font-family="Helvetica,sans-Serif" font-size="9.00"> &#160;&#160;&#160;&#160;&#160;&#160;&#160;&#160;&#160;&#160;&#160;&#160;&#160;&#160;• sessions_lock 안에서 vs.lock OK (debugfs walk 패턴) </text>
<text text-anchor="start" x="1149.12" y="-366.71" font-family="Helvetica,sans-Serif" font-size="9.00"> &#160;&#160;&#160;&#160;&#160;&#160;&#160;&#160;&#160;&#160;&#160;&#160;&#160;&#160;• vs.lock 안에서 xa_lock OK </text>
<text text-anchor="start" x="1149.12" y="-357.71" font-family="Helvetica,sans-Serif" font-size="9.00"> &#160;&#160;&#160;&#160;&#160;&#160;&#160;&#160;&#160;&#160;&#160;&#160;&#160;&#160;• hw_lock 은 다른 mutex 와 무관 (worker 가 단독 사용) </text>
<text text-anchor="start" x="1149.12" y="-348.71" font-family="Helvetica,sans-Serif" font-size="9.00"> &#160;&#160;&#160;&#160;&#160;&#160;&#160;&#160;&#160;&#160;&#160;&#160;&#160;&#160;• spinlock 안에서 GFP_KERNEL / mutex / sleep 절대 금지 </text>
<text text-anchor="start" x="1149.12" y="-339.71" font-family="Helvetica,sans-Serif" font-size="9.00"> &#160;&#160;&#160;&#160;&#160;&#160;&#160;&#160;&#160;&#160;&#160;&#160;&#160;&#160;• ISR 가 잡을 spinlock 은 process 측에서 spin_lock_irqsave </text>
<text text-anchor="start" x="1149.12" y="-330.71" font-family="Helvetica,sans-Serif" font-size="9.00"> &#160;&#160;&#160;&#160;&#160;&#160;&#160;&#160;&#160;&#160;&#160;&#160;&#160;&#160;• driver 의 lock 은 driver 내부에서만 (core lock 잡지 말 것) </text>
<text text-anchor="start" x="1149.12" y="-321.71" font-family="Helvetica,sans-Serif" font-size="9.00"> &#160;&#160;&#160;&#160;&#160;&#160;&#160;&#160;&#160;&#160;&#160;&#160;&#160;&#160;• CONFIG_PROVE_LOCKING=y 로 빌드해서 lockdep 검증 권장 </text>
</g>
<!-- L1 -->
<g id="node10" class="node">
<title>L1</title>
<path fill="none" stroke="none" d="M1596.12,-374.26C1596.12,-374.26 1511.88,-374.26 1511.88,-374.26 1505.88,-374.26 1499.88,-368.26 1499.88,-362.26 1499.88,-362.26 1499.88,-350.26 1499.88,-350.26 1499.88,-344.26 1505.88,-338.26 1511.88,-338.26 1511.88,-338.26 1596.12,-338.26 1596.12,-338.26 1602.12,-338.26 1608.12,-344.26 1608.12,-350.26 1608.12,-350.26 1608.12,-362.26 1608.12,-362.26 1608.12,-368.26 1602.12,-374.26 1596.12,-374.26"/>
<text text-anchor="start" x="1522.88" y="-357.76" font-family="Helvetica,sans-Serif" font-weight="bold" font-size="10.00">red border</text>
<text text-anchor="start" x="1507.88" y="-347.76" font-family="Helvetica,sans-Serif" font-size="10.00">outermost / critical</text>
</g>
<!-- L2 -->
<g id="node11" class="node">
<title>L2</title>
<path fill="none" stroke="none" d="M1618.25,-217.07C1618.25,-217.07 1489.75,-217.07 1489.75,-217.07 1483.75,-217.07 1477.75,-211.07 1477.75,-205.07 1477.75,-205.07 1477.75,-193.07 1477.75,-193.07 1477.75,-187.07 1483.75,-181.07 1489.75,-181.07 1489.75,-181.07 1618.25,-181.07 1618.25,-181.07 1624.25,-181.07 1630.25,-187.07 1630.25,-193.07 1630.25,-193.07 1630.25,-205.07 1630.25,-205.07 1630.25,-211.07 1624.25,-217.07 1618.25,-217.07"/>
<text text-anchor="start" x="1485.75" y="-196.95" font-family="Helvetica,sans-Serif" font-weight="bold" font-size="10.00" fill="#2e7d32">solid green</text>
<text text-anchor="start" x="1550.25" y="-196.95" font-family="Helvetica,sans-Serif" font-size="10.00"> = OK ordering</text>
</g>
<!-- L1&#45;&gt;L2 -->
<!-- L3 -->
<g id="node12" class="node">
<title>L3</title>
<path fill="none" stroke="none" d="M1618.62,-67.94C1618.62,-67.94 1489.38,-67.94 1489.38,-67.94 1483.38,-67.94 1477.38,-61.94 1477.38,-55.94 1477.38,-55.94 1477.38,-43.94 1477.38,-43.94 1477.38,-37.94 1483.38,-31.94 1489.38,-31.94 1489.38,-31.94 1618.62,-31.94 1618.62,-31.94 1624.62,-31.94 1630.62,-37.94 1630.62,-43.94 1630.62,-43.94 1630.62,-55.94 1630.62,-55.94 1630.62,-61.94 1624.62,-67.94 1618.62,-67.94"/>
<text text-anchor="start" x="1485.38" y="-47.82" font-family="Helvetica,sans-Serif" font-weight="bold" font-size="10.00" fill="#c62828">dashed red</text>
<text text-anchor="start" x="1549.88" y="-47.82" font-family="Helvetica,sans-Serif" font-size="10.00"> = FORBIDDEN</text>
</g>
<!-- L2&#45;&gt;L3 -->
</g>
</svg>
